<?xml version="1.0" encoding="UTF-8" standalone="no"?>
<svg
   xml:space="preserve"
   version="1.1"
   style="image-rendering:optimizeQuality;shape-rendering:geometricPrecision;text-rendering:geometricPrecision"
   viewBox="0 0 47307.867 41407.074"
   x="0px"
   y="0px"
   fill-rule="evenodd"
   clip-rule="evenodd"
   id="svg30"
   sodipodi:docname="noun_Baggage_1041420.svg"
   width="47307.867"
   height="41407.074"
   inkscape:version="1.1.1 (3bf5ae0d25, 2021-09-20)"
   xmlns:inkscape="http://www.inkscape.org/namespaces/inkscape"
   xmlns:sodipodi="http://sodipodi.sourceforge.net/DTD/sodipodi-0.dtd"
   xmlns="http://www.w3.org/2000/svg"
   xmlns:svg="http://www.w3.org/2000/svg"><sodipodi:namedview
     id="namedview32"
     pagecolor="#505050"
     bordercolor="#ffffff"
     borderopacity="1"
     inkscape:pageshadow="0"
     inkscape:pageopacity="0"
     inkscape:pagecheckerboard="1"
     showgrid="false"
     inkscape:zoom="0.01"
     inkscape:cx="54950"
     inkscape:cy="35450"
     inkscape:window-width="1920"
     inkscape:window-height="1016"
     inkscape:window-x="0"
     inkscape:window-y="27"
     inkscape:window-maximized="1"
     inkscape:current-layer="svg30" /><defs
     id="defs4"><style
       type="text/css"
       id="style2">
   
    .fil0 {fill:black}
   
  </style></defs><g
     id="g24"
     transform="translate(-1799.1337,-6313.3419)"><path
       class="fil0"
       d="m 11790,45207 c 21,-16 53,-65 63,-46 l 652,-442 c 413,-203 410,-232 682,-512 17,16 44,18 51,50 37,156 42,40 100,101 l 483,505 c 338,303 628,250 806,533 -210,188 -1123,617 -1422,720 -626,217 -708,-95 -1465,-544 8,-24 70,-207 71,-212 z M 3412,37780 c 279,218 899,1662 997,2089 -498,-115 -110,-3 -388,-351 -441,-49 -540,-59 -836,-282 -34,-415 144,-1056 227,-1456 z m 42560,-3030 c 48,34 70,39 75,74 4,35 31,48 36,63 l 77,469 c 19,264 26,474 5,736 -338,-120 71,-38 -276,-145 -169,-52 -276,-40 -458,-50 z m -3712,-2767 c -91,256 -32,147 -78,315 l -78,226 c -7,17 -26,46 -41,68 -412,67 -479,111 -798,-109 120,-205 -5,-130 400,-306 315,-137 165,-119 595,-194 z m -2069,-516 c 348,35 1141,366 1367,619 l -927,46 c -239,-290 -353,-236 -440,-665 z m 2069,516 c -517,-392 -1562,-205 -1321,-978 l -679,-1168 c -126,-732 -25,-960 208,-1508 595,-1401 1133,-635 1722,-848 0,0 536,-292 859,-168 102,39 44,140 239,154 179,12 -89,-146 234,2 23,11 963,754 1037,991 102,328 139,304 317,608 l -358,51 c -79,1852 -928,1916 -1294,2501 -206,330 -487,293 -964,363 z m 2595,-4303 455,34 -59,421 c -235,-100 -57,81 -254,-168 -44,-57 -132,-274 -142,-287 z m -3243,-814 c -63,490 57,347 -438,434 109,-442 22,-312 438,-434 z m 1716,-198 c 180,-144 309,-284 581,-62 145,118 315,435 346,636 -402,-105 -699,-248 -927,-574 z M 9705,20535 c 892,222 592,638 2549,1455 9,955 779,3712 1332,4149 -7,777 -98,1418 -145,2199 -43,710 19,1513 -66,2266 -86,763 -137,1244 -145,2076 -7,855 -151,1382 -240,2167 l -476,6409 c -1,489 -147,1635 108,2057 l 91,112 c -410,433 -840,832 -1300,1144 -246,-431 -269,-347 -1068,-858 -618,-395 -1379,-819 -2035,-1370 55,-937 33,-1843 116,-2765 79,-867 203,-1877 222,-2755 l 493,-5326 c 122,-815 249,-1694 299,-2557 34,-588 -38,-812 62,-1432 195,-1212 195,-5604 203,-6971 z m 3586,2181 c 1279,51 1120,-102 2405,252 196,54 220,37 378,117 311,155 194,144 258,231 -1017,839 -1031,1140 -1963,1734 -235,-292 -310,-757 -500,-1131 -371,-729 -65,169 -578,-1203 z M 7261,41556 c -426,-82 -927,-438 -1426,-640 -87,-917 -458,-1344 -961,-2392 -353,-735 -441,-1093 -1044,-1812 -377,-448 -76,-875 -98,-2356 -9,-561 -53,-482 98,-987 l 533,-5756 c 18,-349 -128,-367 -145,-842 -41,-1134 220,-3805 309,-5131 36,-527 -65,-531 -95,-985 1118,-462 160,-620 1753,-900 930,-163 984,-527 1975,-444 193,212 108,215 334,415 136,120 311,221 443,337 33,678 -251,3059 -299,4041 -108,2187 -59,4541 -476,6703 -155,802 -169,1872 -240,2751 -76,947 -339,1608 -360,2372 -55,1995 -204,3611 -301,5626 z M 5209,17318 c 674,-64 1220,-448 1905,-541 l -20,1524 c -335,179 -1451,532 -2001,517 42,-403 141,-448 194,-745 88,-492 -59,-310 -78,-755 z m 40796,11609 c -591,-259 -223,-424 -98,-978 -248,-740 -454,-461 -857,-821 -870,-777 -606,-1168 -2237,-824 -286,61 -1110,-143 -1385,-70 -900,240 -991,1216 -1057,1384 -264,673 -521,988 -552,2001 -16,492 352,1020 -23,1361 -223,-302 -130,-839 -71,-1259 -17,19 -45,21 -52,55 l -144,171 c -77,115 -80,106 -135,267 -266,778 570,1819 1023,2043 440,216 184,-29 556,332 371,361 709,313 1287,160 73,70 63,61 152,169 94,114 -13,27 134,171 330,320 1100,330 1455,-148 244,-329 941,-1369 723,-1780 -234,212 -230,286 -403,525 -179,247 -1338,1512 -1602,812 -9,-383 1163,-940 1584,-1231 273,-189 52,-126 787,-684 181,-138 280,-215 386,-394 206,-348 104,-234 504,-450 l -101,3237 c -241,160 -260,-23 -543,719 -413,1086 -873,1651 -1506,2524 -459,633 -946,622 -1810,868 -638,181 -1456,374 -2168,586 l -4008,1315 c -298,121 -620,279 -886,383 -357,138 -737,217 -1061,343 -228,89 -222,168 -418,261 -428,203 -1010,203 -1496,375 -2651,944 -5267,1819 -8035,2701 -1979,631 -4253,1233 -6148,1934 -699,258 -1302,559 -1952,787 -467,-681 303,-441 -1673,-1761 -289,-194 -409,-365 -634,-509 86,-1526 41,-2996 157,-4507 45,-579 159,-1357 216,-2028 55,-660 -105,-524 -134,-934 -13,-181 102,-810 143,-1047 204,-1155 272,-4544 329,-6248 72,-2143 -76,-1059 -181,-2171 672,5 709,-43 1152,-425 299,-258 512,-569 790,-788 322,-255 504,-421 857,-717 1110,-931 522,-526 829,-840 3,-3 234,-149 246,-157 1666,-1032 811,-287 2068,-799 741,-302 1815,-314 2611,-639 l 4854,-1589 c 475,-2 -266,246 1288,-159 1069,-278 2914,-1134 3782,-1127 l -235,-206 c -43,-93 1940,-613 2040,-625 l 2338,-558 c 2032,-609 2875,-993 5196,-1500 l 2031,-531 c 179,-84 399,-179 587,-249 1078,1023 2629,841 3392,1251 -33,758 -342,1746 -374,2167 -10,133 -12,257 -26,397 -80,827 -524,2213 -684,3273 -129,859 -377,2214 -389,3032 -10,636 -136,1018 -175,1578 -46,644 108,1108 -244,1571 z M 19396,17128 c 236,-43 506,-82 717,-176 1302,-580 1691,-324 1020,115 -623,407 -1635,745 -2051,1186 -226,-229 -170,-189 -517,-310 l -104,-443 c 345,-255 504,-106 935,-221 146,-284 12,203 -3,-99 z m 26436,-1916 c 246,-264 1581,-722 2053,-774 l -1,1228 c -408,-93 -566,-222 -1017,-297 -372,-61 -666,-107 -1035,-157 z M 29978,14076 c 380,-204 883,-134 1309,-256 375,-107 682,-154 1087,-139 l 120,554 c -666,47 -1892,319 -2506,151 z m 14634,547 c 112,-344 926,-1321 1223,-1592 l 1014,742 -504,232 c -197,106 -349,160 -546,235 -367,140 -800,298 -1187,383 z m -24403,-564 c -57,448 -188,580 -344,957 -134,324 -152,623 -224,1055 -479,297 -2043,626 -2239,999 -136,258 101,283 -256,546 -64,47 -446,199 -614,274 l -6010,2244 c -414,-361 -1542,-1102 -2255,-1160 -96,-515 -58,-778 -102,-1280 -55,-627 -214,-680 -335,-1218 419,-88 80,-100 1031,-277 l 5052,-1722 c 459,-216 1510,-589 2033,-691 l 258,209 c 504,-186 959,-121 1418,-433 l 45,208 c 85,289 427,617 837,610 267,-5 1455,-254 1705,-321 z m 1857,-405 c 1092,-424 2427,-636 3503,-1126 418,-190 458,-115 964,-216 344,-68 457,-214 751,-329 l 1794,-489 c -100,651 681,1408 947,1782 l -808,77 c -94,555 -139,445 -618,636 -1288,516 -1376,464 -2728,818 -1254,329 -2609,695 -3617,1254 -184,-118 -333,-196 -511,-335 130,-904 340,-919 323,-2072 z m 21968,1050 c -2418,566 -4006,957 -6345,1672 -1102,336 -2829,1048 -4032,1392 -3410,978 -6747,2180 -10107,3297 -461,153 -1447,555 -2001,658 l -3202,859 c -501,116 -589,-92 -1049,-234 l -2074,-585 c -1077,-243 -1888,23 -2934,-397 l -445,-255 c -363,-244 -602,-344 -738,-653 l 5611,-2011 c 377,-132 393,-253 805,-348 328,303 359,497 596,782 328,394 270,339 774,361 l 165,-330 c 139,446 232,358 535,530 333,-139 2748,-1452 2944,-1850 89,-181 150,-381 89,-654 -2,-8 -102,-258 -113,-283 -11,-22 -24,-44 -34,-66 l -154,-331 c 875,147 1143,4 1943,-101 795,-105 1037,-244 1752,-410 618,-144 1073,-288 1639,-448 755,-214 805,-546 1382,-733 60,717 137,741 435,1226 550,50 1747,-141 2358,-254 380,-71 684,-133 1047,-234 334,-94 509,-312 934,-307 l 39,-738 c -366,-292 -592,-486 -647,-997 864,-364 1227,-30 2540,-513 404,-148 634,-246 1093,-375 442,-124 845,-109 1345,-241 l 2364,-679 c 1875,-667 1229,-831 1908,-1148 360,249 1151,807 1435,1126 630,710 923,622 1371,1238 -214,613 -761,904 -1229,2034 z M 22343,10867 c 971,-168 2060,-735 3069,-792 898,-50 1190,-248 1975,-478 2244,-658 1937,-873 3207,-239 279,138 321,159 460,459 -507,114 -1016,390 -1529,572 -1835,650 -7668,2343 -9486,2622 -707,109 -943,291 -1576,474 147,-382 66,-135 172,-283 332,-464 458,-1110 578,-1636 z M 32355,9137 c 724,-140 1415,-154 2017,-414 412,-178 1483,-478 1975,-520 l 252,352 c 431,267 1192,383 1693,596 353,151 903,188 1406,202 823,23 676,-25 1281,-255 324,187 380,307 610,495 318,258 423,188 613,566 -1868,439 -3479,954 -5316,1486 -848,246 -1616,604 -2491,840 -2875,774 -723,-393 -2582,231 -346,-221 -571,-602 -788,-835 -501,-539 -417,-317 -800,-686 664,-212 760,-465 1550,-534 l 6,-448 c 372,1 375,23 607,-124 84,-534 -57,-610 -33,-952 z m 5645,-1096 c 182,-285 688,-477 1008,-575 241,131 675,534 779,810 z m -6221,892 c -857,-1097 -1055,-444 -1831,-1296 -543,105 -952,180 -1444,347 -509,172 -822,291 -1339,433 l -5497,1606 c -1017,124 -1756,329 -2658,660 -506,186 -361,325 -708,992 -153,295 -364,645 -463,1004 -1096,-70 -1353,160 -2199,468 l -7311,2558 c -650,231 -3264,1111 -3578,1346 -633,476 -588,1760 -642,2115 -43,281 -142,234 -137,601 l 136,592 c -260,380 -259,408 -298,984 -66,988 -327,1797 -354,3550 -26,1618 -230,3335 -252,4828 -22,1522 -314,2977 -353,4637 -13,572 -167,636 -175,1077 -8,436 0,739 -170,1155 -132,321 -278,419 -389,875 -157,641 -815,2159 406,2824 287,157 558,159 910,370 305,183 550,337 921,453 874,274 698,587 1558,1014 786,391 2525,1580 3093,2129 399,386 1297,679 1552,1106 l 1098,1467 c 376,393 1097,933 1729,890 55,-22 125,-324 1283,-745 536,-195 974,-350 1513,-552 537,-200 925,-393 1482,-600 l 3274,-977 c 448,-132 402,11 751,-19 389,-34 538,-173 820,-269 556,-188 1077,-218 1657,-412 647,-218 1037,-333 1671,-497 684,-177 966,-381 1503,-551 l 3184,-966 c 1518,-559 3218,-1173 4785,-1541 561,-132 946,-392 1477,-577 573,-200 1027,-361 1585,-586 1889,-763 4151,-1093 5696,-1591 532,-172 653,3 1465,-405 332,-167 544,-154 882,-216 746,-137 820,-410 856,-1178 36,-756 138,-2255 -182,-2962 -200,-442 -167,-295 -121,-791 63,-672 27,-1300 105,-1975 245,-2137 260,-3694 562,-5762 92,-632 129,-1169 252,-1808 119,-618 312,-1060 363,-1783 88,-1255 285,-2665 284,-3959 160,-67 78,-17 236,-92 184,-88 105,-33 230,-140 297,-3791 137,-3771 -2330,-4846 -442,-193 -405,-75 -859,-12 l -990,-797 c -17,-11 -42,-26 -59,-38 L 43091,9874 C 42491,9312 41673,8859 41322,8392 40140,6817 40637,7704 39782,6773 39225,6167 38488,6301 38463,6397 l -1492,593 c -970,462 237,114 -1649,730 -588,192 -1238,456 -1759,591 -359,93 -615,105 -945,237 -478,192 -564,328 -839,385 z"
       id="path6" /><path
       class="fil0"
       d="m 28026,31695 c 17,-24 38,-56 53,-70 l 181,-147 c 303,-199 -152,376 383,-384 134,-191 81,-114 217,-237 l 289,147 c -67,256 -120,383 -385,601 -522,429 -732,94 -738,90 z m -2845,-2206 c -426,-60 -554,-495 -324,-829 z m -627,-1286 c -577,171 -576,-135 -305,-630 10,31 53,149 69,180 9,17 27,41 37,59 z m 1856,-2916 c -234,97 -374,470 -635,228 -211,-195 8,-441 114,-559 z m 2001,-316 306,-52 20,424 c -159,-150 -187,-220 -326,-372 z m 1514,1117 c -267,-440 -183,-9 -363,-699 -148,-565 -590,-859 -1248,-940 -194,-759 -128,-1177 -1122,-998 l -379,449 c 4,12 143,401 151,444 1,2 194,233 -177,422 -414,106 -85,45 -490,-268 -186,-144 -263,-169 -559,-162 -116,273 -169,577 -187,952 -366,189 -290,62 -837,396 -250,152 -505,361 -636,543 -294,410 28,347 -191,784 -562,1120 -260,901 64,1603 163,354 97,509 387,797 330,327 281,132 533,662 246,517 86,365 517,636 126,774 348,876 857,1226 603,415 142,732 1154,668 -216,-494 -109,-374 -35,-907 -380,-249 -2214,-3686 -2349,-4061 198,-226 270,-282 594,-388 118,-1689 77,-668 636,-1218 55,-54 241,-317 339,-451 474,-649 367,-281 597,-830 166,52 182,54 264,167 l 971,1904 c 256,373 469,489 687,980 171,388 326,772 510,1037 -66,191 -121,363 -212,541 -190,375 -71,231 -347,379 -78,-96 -61,-66 -139,-216 -192,-370 13,-168 -255,-385 -549,88 -118,250 -815,476 66,-605 320,-480 691,-706 193,-536 16,-605 -130,-1115 -122,-426 -165,-740 -436,-1037 -175,175 1,-271 -155,222 l -56,830 c -275,-131 -488,-553 -725,-632 -469,-156 -150,-15 -267,50 -159,563 423,1388 530,2002 -886,82 -574,-290 -1167,-273 l 211,520 c 529,801 1334,278 1560,231 l -830,1085 269,543 c 6,-15 25,41 38,61 1071,-435 697,-750 1602,-1417 l -1236,1922 c 117,58 380,196 444,240 122,83 94,70 125,109 6,7 18,37 22,42 l 29,102 c 401,-7 869,-65 764,-912 293,-223 318,-56 180,-395 l 579,-60 c 220,-436 441,-435 439,-998 -364,380 -211,614 -878,646 l -293,-378 c 33,-34 233,-276 280,-309 311,-215 173,251 282,-74 6,-20 36,-4 64,-5 l 175,-406 670,54 c -205,-536 -247,245 -632,-1274 -80,-316 121,-511 165,-948 l -307,-376 c 71,-325 292,-527 73,-887 z"
       id="path8" /><path
       class="fil0"
       d="m 36754,34159 c 46,-24 54,-131 263,-69 231,68 175,163 220,266 -300,187 -451,212 -483,-197 z m -3345,-141 c 72,7 111,1 124,43 l 615,394 -602,168 z m 1535,396 55,-428 561,123 260,-476 c 355,197 98,144 494,289 -390,288 -771,459 -1370,492 z m -2441,-930 c 323,291 111,442 -62,841 -5,-66 9,-362 8,-470 -2,-209 -228,-375 54,-371 z m 5501,-212 c -287,154 -229,143 -451,11 86,-118 72,-108 266,-110 242,-1 99,32 185,99 z m -4105,-197 c -129,89 -100,159 -313,-9 275,-311 312,8 313,9 z m -1062,79 c -62,-398 -110,-457 129,-731 164,154 258,-80 82,401 -5,13 -207,323 -211,330 z m 1242,-868 c 22,-598 576,-1523 888,-1971 l 245,349 c 980,1740 1064,1028 1882,2115 -177,247 -172,243 -525,271 l 24,-489 c -230,38 -242,-65 -606,354 -752,865 -713,161 -1908,-629 z m 3056,2780 c 470,-331 934,-1344 1095,-1484 168,-145 257,-129 457,-322 l -271,-286 c -363,-522 114,-487 -773,-900 -324,-1530 -272,-187 -523,-1357 -217,-1010 -1075,-992 -1980,-993 l -271,-361 -916,37 c -676,240 -604,1163 -878,1484 -199,232 -63,-16 -257,341 -57,105 -96,195 -148,329 -159,408 -282,499 -386,802 -166,482 88,579 -163,1018 -203,356 -397,609 -189,1074 l 342,422 c -144,198 -170,154 -234,458 572,13 389,17 530,143 141,126 164,232 373,311 397,150 822,64 1016,-144 -286,-222 -197,-58 -548,-197 -22,-405 -102,-507 1105,-636 -346,463 -260,112 -707,376 l 665,-66 c 263,269 464,529 910,353 377,-149 546,-397 675,-652 -310,-8 -613,-16 -814,-88 l -323,385 -127,-345 1510,-343 c 231,363 358,526 830,641 z"
       id="path10" /><path
       class="fil0"
       d="m 35117,26668 c 207,-153 452,-200 736,-203 -170,188 -330,407 -736,203 z m 3261,-2223 c -44,-362 -84,-362 137,-564 77,110 289,-205 31,342 -93,199 -93,54 -168,222 z m -4867,-750 c -146,-337 -212,-825 76,-1138 179,292 46,861 -76,1138 z m 3664,-2220 c 281,-557 50,-334 355,-535 49,82 153,48 31,329 -8,17 -178,242 -219,311 l 343,183 126,1773 -257,182 c 376,340 199,849 79,1184 -178,500 136,-37 -43,632 -156,8 -625,76 -668,73 -309,-24 115,-75 -477,-155 -217,44 131,298 -2060,605 215,-412 115,-402 99,-1249 446,322 147,418 958,516 480,57 232,-26 1079,-258 228,-552 877,-1147 218,-1722 21,448 106,770 -173,1078 -149,164 -419,375 -712,458 -479,-43 -106,-252 -576,-668 l 14,-579 c 311,106 249,146 628,149 -213,-492 -269,118 -274,-564 754,-318 718,-1193 1257,-1799 267,-46 39,11 272,56 z m -2701,2444 c -41,-69 -67,-40 -86,-209 l 91,-482 c 212,-749 361,-1416 223,-2139 567,-257 435,-241 1152,-267 l 296,327 c 432,-163 245,-198 629,125 -325,380 -720,461 -1031,1236 -540,-290 -753,-551 -491,305 -350,197 -257,193 -423,567 -85,190 -232,388 -360,537 z m 1708,-3560 c 228,-167 9,-106 394,-87 -252,159 -158,199 -394,87 z m -971,274 c 52,-377 273,-450 580,-367 -230,277 -189,314 -580,367 z m -2093,1190 c -2,396 102,404 51,768 -163,1165 58,748 -125,1452 -184,711 19,795 454,846 -169,-161 -267,-210 -256,-590 14,-487 21,-317 321,-477 139,2248 -862,1694 199,2492 261,197 235,512 433,616 1075,174 1335,212 1999,-317 203,-161 1629,-535 1918,-494 124,-483 134,-816 239,-1394 398,-209 663,-286 758,-817 -235,-191 -403,-237 -636,-395 468,-370 573,-175 737,-208 l 254,-482 c -221,-581 -242,-370 -760,-690 -178,-1513 -448,-2344 -1869,-2191 -5,1 -255,38 -269,41 -1091,231 -744,-202 -1366,217 -965,650 -131,683 -1195,782 -92,462 -188,1083 -430,1357 -152,-238 -226,-346 -219,-775 -113,181 -36,94 -238,259 z"
       id="path12" /><path
       class="fil0"
       d="m 40388,22226 c -439,-238 -272,-877 98,-1084 110,172 82,-188 88,285 z m 4753,-2264 c 112,264 141,133 -23,370 -273,-408 3,-343 23,-370 z m -5029,804 c -54,-531 -81,-580 217,-956 240,-304 309,-431 640,-518 -205,745 66,1335 -857,1474 z m 1216,-1133 c 540,-32 1688,-728 2435,-863 l -581,4086 c -429,249 -1601,878 -1942,893 -141,-1302 274,-2820 88,-4116 z m -885,-302 c -1180,1072 -496,1208 -541,1911 -55,855 -272,545 261,1286 -203,642 -741,868 295,2098 13,16 35,41 48,55 l 177,160 c 317,-49 223,-38 426,-111 744,-269 327,-119 1086,-224 65,-123 102,-249 164,-364 900,-146 565,-260 1104,-512 1026,-478 654,53 1393,-1654 286,-664 166,-457 255,-1246 835,-618 680,-694 -275,-1334 307,-1189 -539,-1560 -1607,-1547 -202,3 -300,117 -662,168 -525,74 -1202,-328 -1507,780 561,-165 364,-522 1065,-472 -127,359 -1002,748 -1057,764 -398,117 -277,-74 -625,242 z"
       id="path14" /><path
       class="fil0"
       d="m 42827,28627 c -152,-223 -120,-343 -370,-464 -457,280 -367,644 -690,993 -517,-384 -1057,-610 -1045,344 270,264 690,442 963,582 -96,315 -203,466 -305,726 793,421 368,774 1615,-153 23,-17 92,-64 117,-80 l 447,-260 c -259,-742 -406,122 -592,-433 -245,-731 1432,-972 673,-1845 -449,14 -608,269 -813,590 z"
       id="path16" /><path
       class="fil0"
       d="m 42512,22178 c -161,526 -167,247 -349,656 500,173 749,-206 694,-814 l -621,-281 c 284,-558 944,-420 571,-1035 l -521,231 c 168,-635 920,-999 1147,-1266 -707,-54 -1580,1202 -1632,1421 -129,541 214,112 56,737 -163,641 164,489 655,351 z"
       id="path18" /><path
       class="fil0"
       d="m 39489,29613 c -360,-1422 112,-1246 616,-2054 -902,178 -1615,1873 -616,2054 z"
       id="path20" /><path
       class="fil0"
       d="m 36092,23571 417,103 335,-1339 c -597,343 -446,691 -752,1236 z"
       id="path22" /></g></svg>
