<?xml version="1.0" encoding="UTF-8" standalone="no"?>
<svg
   version="1.1"
   x="0px"
   y="0px"
   viewBox="0 0 97.53933 63.309093"
   xml:space="preserve"
   id="svg72"
   sodipodi:docname="noun_Camera_1314422.svg"
   width="97.53933"
   height="63.309093"
   inkscape:version="1.1.1 (3bf5ae0d25, 2021-09-20)"
   xmlns:inkscape="http://www.inkscape.org/namespaces/inkscape"
   xmlns:sodipodi="http://sodipodi.sourceforge.net/DTD/sodipodi-0.dtd"
   xmlns="http://www.w3.org/2000/svg"
   xmlns:svg="http://www.w3.org/2000/svg"><defs
     id="defs76" /><sodipodi:namedview
     id="namedview74"
     pagecolor="#505050"
     bordercolor="#ffffff"
     borderopacity="1"
     inkscape:pageshadow="0"
     inkscape:pageopacity="0"
     inkscape:pagecheckerboard="1"
     showgrid="false"
     inkscape:zoom="6.752"
     inkscape:cx="48.94846"
     inkscape:cy="43.616706"
     inkscape:window-width="1920"
     inkscape:window-height="1016"
     inkscape:window-x="0"
     inkscape:window-y="27"
     inkscape:window-maximized="1"
     inkscape:current-layer="svg72" /><path
     d="m 91.713844,26.2 c -0.5,0.4 -0.9,0.3 -1.5,0.2 -2.2,-0.2 -4.4,-0.1 -6.6,0.1 -1.3,0.1 -2.6,0.4 -3.9,0.2 -1.1,-0.2 -2.1,0.3 -3.1,0.1 -1.1,-0.2 -2.2,0.3 -3.4,0.1 -0.3,-0.1 -0.6,0.3 -0.5,0.7 0.1,1 -0.1,2.1 0.1,3.1 0,0.2 0.2,0.5 0.1,0.6 -0.8,1 0,1.8 0.2,2.7 0.2,1 0.7,1.9 0.8,2.9 0.4,2.7 2.5,4.3 4.2,6.2 2.3,2.6 5.1,4.7 7.7,6.9 0.2,0.1 0.3,0.3 0.5,0.5 -1.7,-0.3 -7.4,-5.5 -11.6,-10.4 -0.2,0.5 -0.3,1.1 -0.2,1.6 0.3,1.8 0.1,3.7 -0.4,5.4 -0.6,2 -1.3,3.9 -2,5.8 -0.2,0.6 -0.1,0.8 0.5,0.8 1,0 2.1,0 3.1,0 4.4,-0.3 8.8,-0.2 13.2,-0.7 0.5,-0.1 1.2,-0.2 1.5,0.4 0.1,0.2 0.1,0.5 0,0.6 -0.5,0.5 -1.1,0.2 -1.6,0.1 -1.4,-0.4 -2.7,0.4 -4,0.2 -1.9,-0.2 -3.8,0 -5.7,-0.1 -2.6,-0.1 -5.1,0.2 -7.7,0.4 -0.1,0 -0.3,0 -0.4,0.1 -1.3,1.6 -3,2.8 -4.1,4.7 0.5,0 0.9,0.1 1.2,0.1 3,0.1 6.1,0.4 9.1,0.2 2.5,-0.2 5,-0.4 7.5,-0.7 0.9,-0.1 1.7,0 2.6,-0.1 0.9,-0.1 1.8,-0.1 2.4,-1 0.1,-0.2 0.4,-0.5 0.7,-0.2 0.2,0.3 0.7,0.4 0.5,1 -0.3,0.9 -1.1,1.4 -2.1,1.4 -1.3,-0.1 -2.7,-0.2 -4,-0.1 -3.5,0.2 -6.9,0.6 -10.4,0.6 -2.5,0 -5,0 -7.5,-0.1 -0.7,0 -2.9,0.7 -4.2,1.1 -3.3,1 -6.6,2.2 -10.3,1.5 -3.4,-0.7 -6.7,-1.4 -9.9,-2.5 -0.9,-0.3 -1.9,-0.3 -2.9,-0.3 -1.9,0.1 -3.8,-0.3 -5.6,-0.1 -3.2,0.2 -6.4,0.3 -9.6,0 -2.3,-0.2 -4.7,-0.1 -7,0 -3.1,0.1 -6.2,0.3 -9.3000001,-0.4 -0.4,-0.1 -0.7,-0.1 -1.1,-0.1 -0.7,0 -1.8,0.4 -1.1,-1.1 0,0 0,-0.1 0,-0.1 -1.9,-1.8 -0.5,-4 -0.7,-5.9 -0.4,-3.2 0.1,-6.3 0,-9.5 -0.1,-2.1 0,-4.2 0.1,-6.4 0.1,-2.6 0,-5.2 0,-7.7 0,-0.4 -0.2,-0.7 -0.5,-0.7 -1.1,-0.3 -2,-1.3 -3.2,-1.6 -0.6,-0.1 -1.00000002,-0.6 -1.40000002,-1.1 -0.3,-0.5 -0.3,-1.1 0.1,-1.5 0.90000002,-0.8 1.90000002,-1.4 3.10000002,-1.6 2,-0.2 2.2,-0.5 2,-2.5 -0.1,-1.3 0,-2.7 -0.1,-4 0,-0.7 0.3,-1.2 0.7,-1.8 1,-1.6 2.2,-0.9 3.4,-0.9 1.2000001,0 2.3000001,-0.1 3.4000001,-0.2 0.5,0 0.6,-0.3 0.6,-0.8 0,-0.2 -0.1,-0.4 -0.1,-0.7 -0.2,-1.9 0.2,-2.2 2.2,-2.1 2.2,0.1 4.3,0.2 6.5,0.1 1,0 1.2,0.3 1.2,1.1 0,0.3 -0.1,0.7 -0.1,1 -0.1,0.5 -0.4,1.3 0,1.5 0.6,0.3 1.4,0.5 2,0.1 0.7,-0.5 0.7,-1.3 0.8,-2.1 0.1,-1.2 0.1,-2.5 0,-3.7 0,-1 0.4,-1.5 1.4,-1.6 2.5,-0.4 5,-0.2 7.5,-0.2 0.8,0 1.6,0 2.3,0 1,-0.1 1.3,0.5 1.2,1.3 -0.2,1.5 -0.6,3 -0.5,4.5 0,0.5 -0.3,1.2 -1,1.1 -0.6,-0.1 -0.4,-0.7 -0.3,-1.2 0.2,-1.3 0.2,-2.7 0.3,-4 0,-0.3 0,-0.7 -0.4,-0.7 -0.3,0 -0.8,0 -0.8,0.4 -0.1,1.9 -1.3,3.6 -0.9,5.5 0.1,0.8 0.5,1 1.2,0.8 0.1,0 0.2,-0.1 0.3,-0.1 2.3,0.3 3.5,-1.1 4.8,-2.7 2.4,-3 4.8,-6 7.4,-8.9 0.7,-0.7 1.3,-1.1 2.4,-1.1 1.9,0 3.8,-0.3 5.8,-0.4 1.5,-0.1 3,-0.2 4.4,-0.2 1,0 1.6,0.4 2.1,1.5 1.2,2.7 2.6,5.3 4.7,7.4 1.3,1.2 1.9,3 3.3,4.2 0.3,0.3 0.6,0.3 1,0.4 1.6,0.2 3.2,0.1 4.9,-0.1 0.7,-0.1 0.9,-0.3 1,-1 0.2,-1.9 0.4,-3.9 0.7,-5.8 0.1,-0.7 0.6,-0.8 1.1,-0.7 1.6,0.3 3.1,-0.1 4.6,-0.1 1,0 1.4,0.2 1.5,1.2 0.1,1.6 0.1,3.2 0.5,4.7 0.2,0.6 -0.1,1.1 -0.5,1.8 1.3,0.1 2.5,0.1 3.7,0 1.9,-0.2 2.9,0.7 2.8,2.6 -0.1,2.1 0.4,4.2 0.2,6.3 0,0.6 0.2,0.6 0.7,0.5 1.3,-0.2 2.7,-0.1 3.7,1 0.4,0.5 0.6,0.9 0.5,1.5 -0.2,1.8 -1.8,3.6 -3.6,4 -1.7,0.4 -1.6,0.4 -1.6,2.1 0,3.2 0.1,6.4 0.1,9.6 0,1.9 -0.4,3.7 -0.5,5.5 -0.2,3.1 -0.2,6.2 -0.2,9.3 0,0.1 0,0.2 0,0.3 0.1,0.6 -0.2,0.9 -0.6,1.2 -0.2,0.1 -0.4,0.1 -0.5,0 -0.4,-0.3 -0.4,-0.8 -0.2,-1.3 0.3,-1 0.3,-2.1 0.4,-3.2 0.2,-2.8 0.3,-5.6 0.6,-8.4 0.3,-2.5 0.3,-5.1 0.2,-7.7 -0.1,-2.4 -0.5,-4.8 -0.2,-7.3 0.2,-1.4 -0.7,-2.1 -2.4,-2 -3,0.1 -5.9,0.3 -8.9,0.3 -2,0 -4,-0.1 -6,0.3 -0.3,0.1 -0.7,0 -0.8,-0.4 0,-0.5 0.4,-0.4 0.7,-0.5 2.6,-0.3 5.2,-0.1 7.8,-0.2 3,-0.2 6,-0.1 9,-0.4 0.6,0.2 1,0.2 0.9,-0.4 z M 6.4138439,25.7 c 0.6,-0.7 1.3,-0.6 2.2,-0.6 2.6000001,0 5.2000001,-0.2 7.9000001,0.2 0.7,0.1 1.1,-0.2 1.1,-0.9 -0.1,-1.2 0.5,-2.1 1.2,-2.9 0.9,-1.1 1.9,-1.9 3.5,-1.3 0.4,0.1 0.8,0 1.2,-0.1 1.4,-0.3 2.6,0 3.5,1.1 0.8,0.9 1.5,1.9 1.6,3.2 0.1,0.8 0.5,1.1 1.3,0.9 0.3,-0.1 0.7,-0.1 1,-0.1 0.5,0 0.6,-0.3 0.6,-0.7 -0.3,-1.4 -0.1,-2.9 -0.2,-4.3 0,-0.5 0.2,-1 0.4,-1.5 0.3,-0.7 0.8,-0.9 1.4,-0.4 0.6,0.5 1.3,1 1.9,1.6 0.2,0.1 0.3,0.4 0.5,0.3 0.2,-0.1 0.4,-0.3 0.3,-0.5 -0.3,-0.8 0.2,-1.2 0.6,-1.8 0.6,-0.8 1.1,-1.8 1.7,-2.6 0.5,-0.7 0.2,-0.9 -0.5,-0.9 -1.4,0 -2.8,0.1 -4.2,0.2 -3.8,0.2 -7.5,-0.1 -11.3,-0.1 -1.9,0 -3.8,0.1 -5.7,-0.1 -2.5,-0.3 -4.9,0.1 -7.4000001,0.2 -1.8,0.1 -1.8,0 -1.9,1.7 0,0.3 -0.1,0.5 -0.1,0.8 -0.6,2.8 -1,5.7 -0.6,8.6 -0.2,1.1 0.3,1.3 1.4,1.3 2.1,-0.1 4.1000001,0.1 6.2000001,0 0.9,0 1.8,-0.4 2.7,-0.6 -0.2,-0.4 -0.4,-0.4 -0.5,-0.4 -1.6,-0.5 -3.1,-0.2 -4.7,-0.2 -1,0 -2.0000001,0 -3.1000001,0.4 -0.7,0.4 -1.5,0.3 -2,-0.5 z M 21.613844,53.1 c -0.6,-1 -1.7,-1.5 -2.4,-2.2 -2.5,-2.4 -5,-4.9 -7.5,-7.4 -0.9,-0.9 -1.9000001,-1.9 -2.8000001,-2.9 -0.2,-0.2 -0.5,-0.6 -0.2,-1 0.2,-0.2 0.5,0 0.6,0.2 2.3000001,2.5 4.5000001,5.1 7.0000001,7.3 1.6,1.4 2.9,3.1 4.5,4.4 1.1,0.9 2.4,1.6 3.9,1.6 3,0 6,-0.2 9,-0.3 1.1,0 1.2,-0.2 0.7,-1.2 -0.4,-0.9 -1.2,-1.7 -1.2,-2.6 -0.1,-1.8 -0.6,-3.5 -0.9,-5.2 -0.8,-4 0.3,-7.6 2,-11.1 0.8,-1.6 2.2,-2.7 3.7,-3.9 2.7,-2 5.8,-3.3 8.6,-5 1.2,-0.8 2.7,-0.5 4.1,-1 0.9,-0.3 1.9,-0.5 2.8,-0.4 2.9,0.3 6,0.2 8.8,1.2 1.8,0.6 3.6,1.5 5.1,2.7 0.1,0.1 0.4,0.2 0.2,0.5 -0.5,0.6 0.2,0.8 0.4,0.7 0.5,-0.3 0.7,0.1 0.9,0.3 1.1,0.7 1.5,2.1 2.7,2.7 0.3,-0.4 0.3,-0.9 0.3,-1.4 0,-0.9 0.1,-1.8 0.1,-2.7 0.1,-2.3 0.2,-4.6 0.3,-6.9 0,-0.5 -0.2,-0.7 -0.8,-0.6 -1.1,0.2 -2.3,0.2 -3.4,0.3 -3.6,0.1 -7.2,0.2 -10.8,0.4 -2.9,0.1 -5.8,0.4 -8.7,0.2 -3.6,-0.2 -7.2,0.1 -10.7,0.5 -0.8,0.1 -1.1,0.3 -1,1 0.1,2.5 -0.8,5 -0.5,7.6 0.1,0.4 0,0.9 -0.6,0.8 -0.5,-0.1 -0.6,-0.4 -0.4,-0.9 0.3,-0.9 -0.1,-1.3 -1,-1.6 -1.3,-0.3 -2.6,0.1 -3.9,0.1 -0.8,0 -1.7,0.7 -2.4,0.2 -0.8,-0.6 -1,-0.1 -1.4,0.3 -0.5,0.6 -0.6,1.3 -0.8,2 -0.1,0.4 -0.3,0.7 -0.7,1 -1.8,1.4 -3.1,1.1 -4.9,0.3 -1.3,-0.5 -1.4,-1.8 -1.8,-2.9 -0.4,-1 -1,-1.2 -1.9,-1.1 -2.3,0.3 -4.6,0.6 -6.9000001,0.4 -0.7,-0.1 -1.5,0 -2.2,0.1 -0.5,0.1 -1,0.3 -1,1.1 0,3.6 0,7.3 0,10.9 0,2.3 0,4.5 -0.1,6.8 0,0.6 -0.3,1.5 0.1,1.9 1.2,1.2 2.3,2.4 3.4,3.6 0.4000001,0.4 0.7000001,1 1.5000001,0.9 1.3,-0.1 2.6,0 3.9,0 0.4,0 0.9,0.1 1.1,-0.3 0.2,-0.5 -0.3,-0.7 -0.6,-1 -2.2,-2 -4.2,-4.1 -6.3000001,-6.2 -0.5,-0.5 -0.9,-1.2 -1.3,-1.8 -0.2,-0.3 -0.3,-0.6 0.1,-0.7 0.3,-0.2 0.5,0.2 0.5,0.4 0.1,0.3 0.3,0.6 0.5,0.8 2.4000001,2.1 4.4000001,4.6 6.6000001,6.9 0.6,0.6 1.4,1.3 2,1.6 1.1,0.8 2.4,1 3.7,0.6 z m 11.5,-12.7 c 0.1,1.2 0.2,2.5 0.5,3.8 0.4,2.3 1.1,4.5 1.8,6.7 1.3,3.9 3.8,6.6 7.4,8.4 1.5,0.8 3.1,1.4 4.8,1.7 1.7,0.3 3.2,1.3 5,1.4 1.4,0.1 2.8,0 4.2,-0.1 2.7,-0.2 5.1,-1.3 7.5,-2.3 2.2,-1 3.5,-3 5.1,-4.7 2.5,-2.6 3.3,-6.2 4.1,-9.6 0.5,-2.1 0.1,-4.2 -0.2,-6.3 -0.4,-2.9 -1.2,-5.5 -3,-7.8 -1.6,-2.1 -3.5,-3.8 -5.3,-5.6 -0.1,-0.1 -0.2,-0.2 -0.4,-0.2 -1.8,-0.5 -3.7,-0.9 -5.5,-1.4 -3.9,-0.9 -7.8,-0.7 -11.5,1.1 -0.7,0.4 -1.5,0 -2.3,0.5 -1.9,1.1 -3.8,2 -5.6,3.2 -1.4,0.9 -2.7,1.8 -3.6,3.3 -0.7,1.2 -1.2,2.4 -1.8,3.6 -0.9,1.1 -1,2.6 -1.2,4.3 z m 40.1,-25.5 c 0.2,0.6 0.9,1.4 0.1,1.9 -0.8,0.4 -1.1,-0.6 -1.5,-1.1 -2.2,-2.5 -3.8,-5.5 -6,-7.9 -0.3,-0.4 -0.5,-1 -1.1,-0.2 -0.2,0.2 -0.8,0.2 -1,-0.2 -0.7,-1.6 -2.4,-2.4 -3.2,-3.9 -0.2,-0.4 -0.6,-0.4 -1,-0.4 -1.9,-0.1 -3.7,0.3 -5.5,0.4 -2.2,0.1 -3.7,0.8 -4.6,2.9 4.2,0.7 8.4,0.9 12.7,0.4 0.4,0 0.8,-0.1 0.9,0.4 0,0.5 -0.3,0.7 -0.7,0.7 -1.2,-0.1 -2.3,0 -3.5,0 -3.5,0.1 -7,-0.8 -10.5,0.1 -0.2,0.1 -0.5,0.1 -0.7,-0.1 -0.2,-0.2 -0.1,-0.5 0,-0.7 0.8,-0.9 1.2,-2.2 2,-3.1 0.7,-0.8 1.1,-1.7 2.7,-1.5 2.5,0.4 5.1,-0.2 7.6,-0.4 1,-0.1 1.4,0.2 1.8,0.9 0.6,1.1 1.6,1.8 2.6,2.6 -0.8,-1.3 -1.6,-2.6 -2.5,-3.9 -0.2,-0.4 -0.5,-0.5 -0.9,-0.4 -2.6,0.2 -5.3,-0.2 -7.9,0.5 -1,0.3 -2.3,-0.2 -3.1,0.6 -0.7,0.7 -1.4,1.5 -2.2,2.2 -1.7,1.5 -2.8,3.5 -4.4,5 -2.1,2 -3.3,4.8 -5.1,7 -0.7,0.8 -1.4,1.6 -1.8,2.6 0.5,0.1 0.9,0.3 1.2,0.3 3.1,-0.2 6.1,-0.1 9.2,-0.4 3.2,-0.3 6.4,0 9.6,-0.2 3.6,-0.3 7.3,-0.3 10.9,-0.3 1.8,0 3.6,-0.3 5.3,-1.2 0.4,-0.2 0.6,-0.1 0.8,0.2 0.2,0.3 0.7,0.6 0.3,1 -0.1,0.2 -0.4,0.4 -0.4,0.6 -0.2,2 -0.4,4 -0.6,6.1 0,0.3 0.1,0.4 0.4,0.4 0.9,0 1.8,0.4 2.6,0.2 0.9,-0.2 1.8,-0.3 2.6,-0.2 2.1,0.2 4.3,-0.1 6.4,-0.2 2.1,-0.1 4.1,-0.4 6.2,-0.4 0.8,0 0.8,-0.3 0.9,-0.9 0.1,-2.7 -0.1,-5.5 -0.3,-8.2 -0.1,-1 -1.1,-1.7 -2.1,-1.6 -1.9,0.3 -3.7,0.4 -5.6,0.1 -0.9,-0.1 -1.8,-0.3 -2.8,-0.2 -2.6,0.5 -5.2,0.1 -7.8,0.5 z m -33.3,44.2 c -1.6,-1.3 -2.9,-2.7 -4.1,-4.3 -0.5,-0.7 -1.4,-1.1 -2.4,-1.1 -1.8,0 -3.6,0.4 -5.4,0.3 -4,-0.1 -8,0 -12,-0.1 -2.8,-0.1 -5.6,-0.1 -8.4000001,0.5 -0.5,0.1 -1.3,-0.2 -1.3,0.7 0,0.6 0,1.2 0,1.8 1,-0.3 0.8,0.9 1.6,1.2 1.3,0.5 2.7000001,0.8 4.1000001,1 1,0.1 2,0 3,0 2.7,0 5.5,0.1 8.2,0.2 2.4,0.1 4.7,-0.1 7,-0.1 0.6,0 1.2,0.3 1.8,0.3 2.7,-0.1 5.2,-0.2 7.9,-0.4 z m -10.2,-51.9 c -0.1,0.1 -0.2,0.3 -0.3,0.4 -0.1,1.5 -0.4,3 -0.4,4.4 -0.1,1.6 0.3,1.9 1.9,1.8 0.9,-0.1 1.7,-0.1 2.6,-0.2 0.4,0 0.7,-0.1 0.7,-0.6 -0.3,-1.9 0.4,-3.7 0.6,-5.5 0,-0.3 0.1,-0.7 -0.4,-0.6 -0.3,0 -0.7,-0.2 -0.8,0.3 -0.1,0.3 -0.1,0.6 -0.1,0.9 0,1.3 0,2.6 0,3.9 0,0.6 0,1.2 -0.7,1.1 -0.5,0 -0.3,-0.6 -0.3,-1 0,-1.6 0,-3.2 0,-4.8 0,-0.5 -0.2,-0.5 -0.6,-0.4 -0.3,0.1 -0.8,-0.1 -0.7,0.4 0.4,1.6 0,3.2 -0.1,4.8 0,0.4 0.1,0.9 -0.4,1 -0.2,0.1 -0.4,0.1 -0.5,0 -0.3,-0.3 -0.2,-0.7 -0.1,-1.1 0.2,-1 0.5,-1.9 0.3,-3 0,-0.7 -0.9,-1 -0.7,-1.8 z m -6.6,19.6 c 1.7,0.1 2.5,-0.4 2.5,-1.6 0,-1.3 -1,-2.3 -2.5,-2.4 -1.3,-0.1 -2.6,1.1 -2.6,2.3 -0.1,0.7 1.3,1.6 2.6,1.7 z m 5,0.2 c 0.4,0 0.8,0 1.2,-0.1 1.9,-0.2 3.7,-0.6 5.6,0 0.4,0.1 0.7,-0.1 0.7,-0.5 0,-1.2 0,-2.4 0.2,-3.5 0.1,-0.3 -0.1,-0.6 -0.6,-0.3 -1.1,0.6 -2,1.5 -3,2.3 0.8,0.3 1.5,0 2.2,0.2 0.3,0.1 0.7,0.2 0.5,0.7 -0.1,0.6 -0.5,0.2 -0.7,0.1 -1.6,-0.4 -3.2,0 -4.7,0 -0.6,0 -1.2,0.3 -1.4,1.1 z m -5.3,4.1 c 1.3,0 1.9,-0.5 2.3,-1.8 0.2,-0.6 0,-0.8 -0.6,-0.7 -1.5,0.1 -2.9,0.2 -4.3,-0.4 -0.5,-0.2 -0.6,0 -0.5,0.4 0.3,1.5 1.3,2.3 3.1,2.5 z m 3.6,-4.4 c 0.8,-0.5 1.3,-2.1 1,-2.8 -0.9,-2.2 -2.5,-3.2 -4.9,-3 -1.9,0.2 -3.5,1.6 -3.8,3.4 -0.1,0.8 0.1,1.5 0.8,2 -0.7,-1.9 0.1,-3.3 1.5,-4.3 0.9,-0.7 2.3,-0.9 3.3,-0.4 1.9,1.1 3.4,2.5 2.1,5.1 z m -6.3,-13.3 c 0.6,0 0.9,0 1.2,0 0.4,0 0.6,-0.1 0.7,-0.5 0.1,-0.4 -0.2,-0.5 -0.5,-0.6 -0.2,-0.1 -0.5,-0.2 -0.7,-0.2 -1.9,-0.4 -3.7,0.4 -5.6,0.7 -0.2,0 -0.4,0.1 -0.4,0.3 0.1,0.3 0.3,0.4 0.6,0.3 1.6,-0.2 3.3,0.4 4.7,0 z m 72.5,15.3 c 0.9,-0.1 1.7,-0.5 2.4,-1.1 0.5,-0.4 1,-1 0.4,-1.7 -0.5,-0.6 -1.3,-0.6 -2.1,-0.4 -0.7,0.2 -0.8,0.7 -0.8,1.3 0.1,0.6 0.1,1.2 0.1,1.9 z M 6.5138439,49.9 c -0.7,1.4 0.3,2.6 -0.2,3.9 0.8,-0.5 1.5,-0.6 2.3,-0.7 0.2,0 0.6,0.1 0.7,-0.2 0.1,-0.3 0,-0.7 -0.3,-0.9 -1,-0.5 -1.6,-1.4 -2.5,-2.1 z M 27.013844,12.1 c 0,0.3 0,0.6 0,0.8 0.1,0.3 0,0.7 0.5,0.7 0.4,0 0.5,-0.3 0.5,-0.7 0,-0.6 0.1,-1.1 0.1,-1.7 0.1,-1.1 0.2,-2.2 0.3,-3.3 0,-0.3 0,-0.5 -0.3,-0.6 -0.3,-0.1 -0.4,0.1 -0.5,0.3 -0.1,0.3 -0.4,0.6 -0.3,0.8 0.1,1.3 -0.3,2.5 -0.3,3.7 z m 55.7,-3.9 c 0,0 0,0 0,0 0.5,0.1 1,0.1 1.5,0.1 0.3,0 0.7,0.1 0.7,-0.4 0,-0.4 -0.3,-0.9 -0.6,-0.8 -1.3,0.3 -2.7,0 -3.9,0.4 -0.5,0.2 -0.4,0.5 -0.4,0.8 0,0.5 0.4,0.3 0.7,0.3 0.5,-0.3 1.3,-0.3 2,-0.4 z m -50.6,13.2 c 0,0.6 0,0.8 0,1.1 0,0.3 -0.2,0.7 0.2,0.9 0.4,0.1 0.7,-0.3 0.9,-0.5 0.6,-0.7 0.4,-1.7 0.6,-2.5 0.1,-0.4 -0.5,-1.1 -1.1,-1.1 -0.5,0 -0.4,0.6 -0.4,1 -0.2,0.5 -0.2,1 -0.2,1.1 z m 47.7,-10 c 1.9,0 3.6,-0.2 5.4,0.1 -1.6,-1.3 -3.3,-1.3 -5.4,-0.1 z m 1.8,2.2 c 1.2,0.1 2.2,0.2 3.2,0.2 0.3,0 0.7,0.1 0.8,-0.2 0.2,-0.4 -0.5,-0.6 -0.5,-1.1 0,-0.3 -0.6,-0.2 -0.7,-0.1 -0.6,0.9 -1.8,0.6 -2.8,1.2 z m -2.1,-0.2 c 0.9,-0.9 2.2,-0.7 3.5,-1.1 -1,0 -1.9,0 -2.7,0 -1.2,0 -1.2,0 -0.8,1.1 z m -74.3000001,14 c 0.3,-1.3 0.2,-1.4 -1.5,-1.3 0.2,0.7 1,0.8 1.5,1.3 z"
     id="path2" /><path
     d="m 82.913844,38.2 c 0.2,-2.5 -1.9,-3.5 -2.8,-5.3 1.1,-0.1 1,1.1 1.9,1.3 -0.2,-1.5 0.1,-3 -0.5,-4.5 2,2.2 4.6,3.8 6.6,6.1 -0.1,0.1 -0.1,0.1 -0.2,0.2 -1.6,-1.3 -3.1,-2.6 -4.7,-4 -0.2,-0.2 -0.4,-0.6 -0.7,-0.4 -0.3,0.2 -0.1,0.5 -0.1,0.8 0.1,2.1 1,3.7 2.6,5 1.2,0.9 2.4,1.9 3.5,3 -2.1,-0.4 -3.4,-2.2 -5,-3.7 0.3,1.9 1,3.2 2.3,4.3 1.2,1 2.3,2 3,3.3 -4.4,-3.8 -8.4,-8 -12.1,-12.4 2.2,2 3.9,4.4 6.2,6.3 z"
     id="path4" /><path
     d="m 87.213844,47.9 c -1.9,-0.7 -10.9,-9.7 -11.1,-11.1 3.6,3.9 7.4,7.4 11.1,11.1 z"
     id="path6" /><path
     d="m 75.613844,46 c 1,0.5 1.4,1.5 2.2,2.2 1.2,1 2.2,2.3 3.7,3 0.2,0.1 0.2,0.2 0.2,0.4 -0.1,0.2 -0.3,0.1 -0.5,0.1 -0.7,-0.4 -1.4,-0.7 -2,-1.2 -1.2,-1.2 -2.5,-2.4 -3.6,-3.8 -0.1,-0.3 -0.3,-0.4 0,-0.7 z"
     id="path8" /><path
     d="m 77.913844,52.2 c -1.4,-0.4 -2.5,-1.3 -3.6,-2.1 -0.2,-0.1 -0.3,-0.3 -0.1,-0.5 0.2,-0.2 0.4,0 0.5,0.1 1.2,0.8 2.1,1.8 3.2,2.5 z"
     id="path10" /><path
     d="m 88.013844,30.8 c 1.1,0.4 1.5,1.4 2.2,2.2 -0.9,-0.4 -1.8,-1.3 -2.2,-2.2 z"
     id="path12" /><path
     d="m 31.013844,52.2 c -1.1,-0.4 -1.8,-1.3 -2.6,-2 -3.2,-3.1 -6.4,-6.1 -9.4,-9.3 -2.3,-2.4 -4.9,-4.5 -7.4,-6.7 -0.6,-0.6 -1.1,-1.3 -1.5,-2 -0.1,-0.2 -0.1,-0.5 0.1,-0.6 0.3,-0.2 0.4,0.1 0.5,0.3 1.4,2.3 3.5,3.8 5.4,5.5 1.4,1.3 2.7,2.6 4.1,3.9 3.5,3.4 7,6.9 10.5,10.3 0.1,0.2 0.4,0.3 0.3,0.6 z"
     id="path14" /><path
     d="m 27.113844,52.7 c -0.1,0.1 -0.1,0.2 -0.2,0.3 -0.2,0.1 -0.4,0 -0.5,-0.2 -1.1,-1.2 -2.5,-2 -3.7,-3 -2.8,-2.4 -5.2,-5.1 -7.8,-7.7 -1.7,-1.7 -3.4,-3.5 -5.1000001,-5.2 -0.1,-0.1 -0.3,-0.2 -0.4,-0.4 -0.2,-0.4 -0.6,-0.8 -0.2,-1.2 0.4,-0.3 0.6,0.3 0.8000001,0.6 2.2,2.6 4.6,4.9 6.9,7.3 3.1,3.2 6.3,6.3 9.8,9.1 0.2,0.1 0.3,0.3 0.4,0.4 z"
     id="path16" /><path
     d="m 32.113844,48.6 c -6.6,-4.9 -12.6,-10.5 -17.7,-17 2.8,2.9 5.7,5.8 8.6,8.7 2.9,3 6.1,5.5 9.1,8.3 z"
     id="path18" /><path
     d="m 30.113844,44.6 c -1.4,-1.3 -2.7,-2.6 -4.2,-3.9 -2,-1.8 -4.1,-3.5 -6.2,-5.3 -0.4,-0.3 -1.2,-0.8 -0.7,-1.3 0.4,-0.4 0.8,0.4 1.2,0.7 1.8,1.5 3.5,3.1 5.2,4.7 1.7,1.5 3.4,3.2 4.7,5.1 z"
     id="path20" /><path
     d="m 30.513844,40.8 c -1,-0.3 -1.3,-1.2 -2,-1.7 -1.9,-1.3 -3.3,-3.2 -4.9,-4.7 -0.2,-0.2 -0.3,-0.4 -0.4,-0.7 0,-0.1 0,-0.3 0.1,-0.4 0.2,-0.2 0.4,0 0.5,0.1 1.6,2.5 4.1,4.1 6,6.4 0.1,0.4 0.6,0.5 0.7,1 z"
     id="path22" /><path
     d="m 12.113844,51.7 c -1.7,-1.5 -3.4000001,-2.8 -4.6000001,-4.7 -0.3,-0.5 -1.3,-1 -0.8,-1.4 0.5,-0.5 0.9,0.6 1.3,1 1.4,1.4 2.7000001,2.9 4.1000001,4.3 0,0.2 0.1,0.4 0,0.8 z"
     id="path24" /><path
     d="m 26.313844,31.7 c 1.1,1.2 2.2,2.4 3.2,3.6 -1.4,-0.9 -2.7,-2 -3.5,-3.4 0.1,-0.1 0.2,-0.1 0.3,-0.2 z"
     id="path26" /><path
     d="m 30.313844,33.5 c -0.8,-0.6 -1.4,-1.3 -2.2,-1.8 -0.1,-0.1 -0.4,-0.3 -0.2,-0.6 0.2,-0.2 0.4,0 0.6,0.1 0.8,0.6 1.4,1.4 1.8,2.3 z"
     id="path28" /><path
     d="m 45.013844,57.5 c -1.4,-0.9 -2.6,-1.9 -2.4,-3.8 0.1,-0.8 -0.3,-1.7 0.3,-2.5 0.2,-0.2 -0.1,-0.4 -0.2,-0.6 -1.4,-1.2 -2.1,-2.7 -2.6,-4.5 -0.4,-1.6 -0.6,-3.2 -0.7,-4.9 -0.1,-2.8 1.3,-5 2.9,-7 1.2,-1.5 2.6,-3 4.3,-4 2.6,-1.5 5.5,-1.6 8.4,-1.7 1,0 2.1,0 3.1,0 0.1,0 0.9,-0.4 0.2,0.3 -0.1,0.1 0.4,0.2 0.6,0.3 2.4,0.9 4.8,1.8 6.6,3.9 0.6,0.7 1,1.4 1.2,2.2 0.3,1.1 0.7,2.1 1.1,3.1 1,2.5 0.6,5 -0.1,7.6 -0.3,1.3 -0.6,2.5 -1.3,3.7 -0.9,1.6 -2.2,2.8 -3.6,3.8 -1.1,0.8 -2.3,1.6 -3.2,2.7 -0.3,0.3 -0.6,0 -0.9,0.1 -1.9,0.7 -3.8,0.4 -5.7,0.3 -1.9,0 -3.7,-0.9 -5.3,-1.8 -1.4,-0.8 -2.7,-1.7 -3.8,-3 -0.2,-0.2 -0.3,-0.5 -0.6,-0.4 -0.2,0.1 -0.3,0.4 -0.4,0.6 -0.2,1.6 -0.3,3.2 1.2,4.3 0.5,0.5 0.6,0.9 0.9,1.3 z m 1.2,-25.4 c -1.1,0.3 -2,1 -2.7,1.9 -1.8,2.1 -3.4,4.2 -3,7.2 0.3,1.9 0,3.8 1.2,5.5 0.5,0.8 0.7,1.9 1.5,2.6 2,2 3.9,4.2 6.7,5.2 3.5,1.2 7.1,1.9 10.5,-0.2 2.4,-1.5 4.4,-3.3 5.5,-6.1 1.4,-3.7 1.7,-7.4 0.3,-11.1 -0.8,-2.1 -1.7,-4 -3.8,-5.1 -1.7,-0.9 -3.3,-2.1 -5.1,-2.2 -2.2,-0.2 -4.4,-0.4 -6.6,0.1 -1.8,0.3 -3.3,0.9 -4.5,2.2 z"
     id="path30" /><path
     d="m 67.513844,35.4 c 0.7,-0.3 1.1,0 1.4,0.6 0.7,1.4 1.1,3 1.3,4.5 0.2,1.4 0.5,2.8 -0.1,4.2 -0.1,-1.6 0,-3.2 -0.4,-4.8 -0.5,-1.6 -1.3,-3.1 -2.2,-4.5 z"
     id="path32" /><path
     d="m 39.913844,30 c -3.3,3.8 -3.5,6 -4.4,10 -0.3,-3.6 2.1,-9.1 4.4,-10 z"
     id="path34" /><path
     d="m 55.613844,25.7 c -3.2,0.1 -6.3,0.9 -9.2,2.5 1.1,-1.8 5.8,-3.1 9.2,-2.5 z"
     id="path36" /><path
     d="m 67.513844,35.4 c -0.7,-1.2 -1.5,-2.5 -2.2,-3.7 -0.7,-1.2 -2.1,-1.9 -2.5,-3.3 2.1,1.8 3.6,4 4.8,6.4 0,0.3 0,0.4 -0.1,0.6 0,0 0,0 0,0 z"
     id="path38" /><path
     d="m 50.513844,59.9 c -3.3,-0.3 -4,-1.2 -4.5,-3.8 1,0.6 0.9,2 1.9,2.5 0.8,0.4 1.6,1.2 2.6,1.3 z"
     id="path40" /><path
     d="m 54.413844,60.4 c 1.6,0.3 2.9,0.3 4.4,-0.4 -1.1,1.3 -2.9,1.4 -4.4,0.4 z"
     id="path42" /><path
     d="m 70.013844,45.4 c 0.1,1.9 -0.3,3.6 -0.9,5.4 0.2,-1.8 0.5,-3.6 0.9,-5.4 z"
     id="path44" /><path
     d="m 37.113844,41.5 c 0.1,0.8 0.4,1.8 0.2,1.9 -1,0.6 -0.3,1.5 -0.7,2.1 0,-1.3 -0.2,-2.6 0.5,-4 z"
     id="path46" /><path
     d="m 57.713844,57.9 c -1.1,0.8 -2.2,1.5 -3.6,1.8 1.2,-0.6 2.4,-1.2 3.6,-1.8 z"
     id="path48" /><path
     d="m 70.413844,38 c -0.8,-0.7 -0.9,-1.7 -1.1,-2.6 0.9,0.6 0.6,1.8 1.1,2.6 z"
     id="path50" /><path
     d="m 70.413844,38 c 0.4,1.3 0.6,2.6 0.6,4 -0.2,-1.3 -0.8,-2.6 -0.6,-4 0,0 0,0 0,0 z"
     id="path52" /><path
     d="m 72.213844,40 c -0.1,1 -0.1,2.1 -0.2,3.1 -0.2,-1.1 -0.3,-2.1 -0.1,-3.1 0.1,0 0.2,0 0.3,0 z"
     id="path54" /><path
     d="m 37.413844,38 c -0.1,1 -0.2,2 -0.3,2.9 -0.2,-1 -0.2,-2 0.3,-2.9 z"
     id="path56" /><path
     d="m 41.113844,17.1 c 5.5,0.3 10.7,0.4 16,0.2 3.9,-0.1 7.9,-0.1 11.8,-0.3 0.5,0 0.9,0.1 0.9,0.6 0,0.4 -0.5,0.5 -0.8,0.5 -1.1,0 -2.1,-0.2 -3.2,-0.2 -3.4,0.2 -6.8,0.1 -10.2,0.3 -4.1,0.2 -8.2,0 -12.2,-0.1 -1.1,0 -2.2,0.3 -3.3,0.2 -0.3,0 -0.5,0 -0.7,-0.2 -0.1,-0.3 0.1,-0.5 0.2,-0.7 1.5,-1.5 2.6,-3.4 4.1,-5 0.5,-0.5 0.3,-1.2 0.9,-1.6 0.4,-0.3 0.8,-0.6 1.2,-0.2 0.4,0.4 0,0.8 -0.3,1.2 -0.8,0.9 -1.8,1.8 -2.6,2.8 -0.6,0.7 -1.1,1.6 -1.8,2.5 z"
     id="path58" /><path
     d="m 49.013844,10.1 c 3.4,-0.1 6.7,0 10.1,-0.1 1.9,-0.1 3.9,0.3 5.8,0.1 0.4,0 0.8,0 0.9,0.4 0.3,1 1.2,1.5 1.9,2.1 1.2,1.1 2.4,2.3 3.6,3.5 0.3,0.3 0.5,0.7 0.2,1.1 -0.4,0.4 -0.7,0 -1,-0.1 -0.9,-0.5 -1.4,-1.4 -2.1,-2.1 -1.2,-1.3 -2.7,-2.2 -3.7,-3.6 -0.2,-0.3 -0.6,-0.4 -1,-0.4 -3.6,-0.1 -7.3,-0.3 -10.9,0 -1.8,0 -3.5,0 -5.3,0.2 -0.4,0.1 -0.9,0.2 -0.9,-0.5 0,-0.6 0.4,-0.7 0.8,-0.7 0.5,0.1 1.1,0.1 1.6,0.1 z"
     id="path60" /><path
     d="m 83.213844,25 c -1,0 -2,-0.9 -2,-1.9 0,-0.7 1.1,-2 1.8,-2 1.1,0.1 2.6,1.2 2.6,2 0.1,0.9 -1.2,1.9 -2.4,1.9 z m 0.3,-2.6 c -0.4,0.3 -1.1,0.1 -1.1,0.8 0,0.5 0.3,0.9 0.8,0.9 0.6,0 1.3,-0.1 1.3,-0.9 0.1,-0.6 -0.6,-0.7 -1,-0.8 z"
     id="path62" /><path
     d="m 44.113844,43.3 c -0.5,-4.9 3.3,-8.9 7.3,-9.8 1.8,-0.4 3.7,-0.4 5.5,0 1.9,0.4 3.2,1.7 4.5,2.9 1.4,1.3 2.2,2.7 2.2,4.6 0,3 -0.6,5.7 -3.2,7.6 -2.4,1.8 -5,2.9 -8.1,3.3 -2.3,0.3 -3.5,-0.8 -5.1,-1.7 -1.7,-1 -2.6,-2.7 -3,-4.6 -0.1,-0.7 -0.1,-1.5 -0.1,-2.3 z m 16.8,3.2 c 1.2,-1.1 1.1,-2.7 1.5,-4 0.4,-1.1 -0.3,-2 -1,-2.8 -0.1,0.2 0,0.4 0.1,0.6 0.2,1.5 0.6,3 -0.1,4.5 -0.3,0.4 -0.5,1 -0.5,1.7 -0.3,0.1 -0.6,-0.3 -0.9,0.1 -0.4,0.7 -0.8,1.3 -1.4,1.8 1.1,-0.3 1.5,-1.3 2.3,-1.9 z m -10.1,-9.3 c -1.2,0.9 -2.1,1.8 -2.6,2.9 -0.5,1.1 -1.1,2.4 -0.4,3.7 0.1,0.3 0.3,0.6 0.6,0.6 0.4,0 0.2,-0.4 0.2,-0.7 0.5,-2.1 0.9,-4.3 2.2,-6.5 z m 0.2,3.1 c -1.3,1.9 -1.5,3.8 -0.8,5.1 0.2,-0.6 0.5,-1 0.8,-1.3 0.3,-0.3 0.2,-1.1 -0.2,-1 -0.8,0.2 -0.5,-0.1 -0.4,-0.5 0.2,-0.7 0.4,-1.5 0.6,-2.3 z m -4.2,4.1 c -0.2,0.8 -0.1,1.4 0.4,1.5 0.9,0.2 0.9,0.9 1.1,1.4 0.2,0.5 0.1,1.1 0.7,1.4 0.4,-1.9 -1.2,-2.8 -2.2,-4.3 z m 1.5,-6.5 c -1.8,0.9 -1.7,2.6 -2.1,4.2 0.6,-1.5 1,-3 2.1,-4.2 z m 3.8,-2.5 c 1.4,0.4 1.5,0.3 2,-1 -1.4,0 -1.4,0 -2,1 z m -1.2,11.4 c -0.2,0.5 -0.6,1 -0.4,1.6 0.1,0.3 0.2,0.7 0.7,0.6 0.3,-0.1 0.4,-0.4 0.2,-0.8 -0.3,-0.5 -0.4,-1 -0.5,-1.4 z m 5.6,-8.8 c -0.6,0.1 -0.8,0.6 -1,0.9 -0.2,0.3 -0.3,0.8 0,1 0.4,0.2 0.4,-0.4 0.6,-0.6 0.3,-0.4 0.5,-0.8 0.4,-1.3 z m 0.7,-0.3 c 0.5,-0.1 0.6,-0.5 0.9,-0.8 0.2,-0.2 0.3,-0.4 0.1,-0.6 -0.2,-0.2 -0.3,-0.4 -0.6,-0.4 -0.4,0.1 -0.2,0.4 -0.3,0.6 -0.1,0.4 0,0.8 -0.1,1.2 z m -2.6,5.6 c 0.4,-0.3 0.6,-0.7 0.7,-1.2 0,-0.2 -0.1,-0.6 -0.3,-0.5 -0.5,0.2 -0.7,0.7 -0.8,1.2 0,0.3 0.1,0.4 0.4,0.5 z m 4.3,-6.1 c 0.9,0.6 0.9,1.8 1.5,2.7 0,-1.7 -0.4,-2.3 -1.5,-2.7 z m -3.9,7.5 c 0.3,-0.3 0.7,-0.6 0.8,-1.1 0,-0.2 -0.1,-0.5 -0.3,-0.4 -0.5,0.2 -0.7,0.8 -0.8,1.2 -0.1,0.2 0.1,0.2 0.3,0.3 z m 5.8,-7.3 c -0.6,-1.1 -1.1,-1.5 -2.1,-1.7 0.6,0.7 1.3,1.2 2.1,1.7 z"
     id="path64" /><path
     d="m 46.213844,32.1 c 0.5,-0.2 1.1,-0.4 1.6,-0.5 0.2,-0.1 0.5,0 0.6,0.2 0.1,0.3 -0.2,0.3 -0.4,0.4 -2.9,1.2 -4.1,3.7 -5.2,6.4 -0.1,0.2 0,0.5 0,0.8 0.1,0.3 0.1,0.7 -0.3,0.7 -0.4,0 -0.7,-0.4 -0.6,-0.8 0.2,-0.7 0.3,-1.5 0.6,-2.2 0.9,-1.9 2.5,-3.3 3.7,-5 0,0 0,0 0,0 z"
     id="path66" /></svg>
