<?xml version="1.0" encoding="UTF-8" standalone="no"?>
<svg
   xml:space="preserve"
   version="1.1"
   style="image-rendering:optimizeQuality;shape-rendering:geometricPrecision;text-rendering:geometricPrecision"
   viewBox="0 0 58909.188 44427.059"
   x="0px"
   y="0px"
   fill-rule="evenodd"
   clip-rule="evenodd"
   id="svg14"
   sodipodi:docname="thanks.svg"
   inkscape:version="1.1.1 (3bf5ae0d25, 2021-09-20)"
   width="58909.188"
   height="44427.059"
   xmlns:inkscape="http://www.inkscape.org/namespaces/inkscape"
   xmlns:sodipodi="http://sodipodi.sourceforge.net/DTD/sodipodi-0.dtd"
   xmlns="http://www.w3.org/2000/svg"
   xmlns:svg="http://www.w3.org/2000/svg"><sodipodi:namedview
     id="namedview16"
     pagecolor="#505050"
     bordercolor="#ffffff"
     borderopacity="1"
     inkscape:pageshadow="0"
     inkscape:pageopacity="0"
     inkscape:pagecheckerboard="1"
     showgrid="false"
     inkscape:zoom="0.01"
     inkscape:cx="6150"
     inkscape:cy="20250"
     inkscape:window-width="1920"
     inkscape:window-height="1016"
     inkscape:window-x="0"
     inkscape:window-y="27"
     inkscape:window-maximized="1"
     inkscape:current-layer="svg14" /><defs
     id="defs4"><style
       type="text/css"
       id="style2">
   
    .fil0 {fill:black;fill-rule:nonzero}
   
  </style></defs><g
     id="g8"
     transform="translate(-539.53696,-7792.3345)"><path
       class="fil0"
       d="m 949.07,26923.05 c -220.05,6.04 -403.34,-167.45 -409.38,-387.5 -6.04,-220.05 167.45,-403.34 387.5,-409.38 674.26,-20.07 1328.98,-17.24 1960.32,-14.52 2631.07,11.37 4836.75,20.47 6633.74,-1783.82 l -0.2,-0.1 c -763.87,-388.02 -1318.27,-938.18 -1406.23,-1768.15 -85.46,-806.16 325.17,-1318.25 907.27,-1578.79 398.37,-178.31 878.47,-226.81 1315.96,-161.97 457.02,67.73 883,260.74 1148.25,561.87 321.38,364.88 418.27,852.29 105.26,1430.98 -236.84,437.87 -480.93,828.67 -732.24,1178.25 384.7,114.15 791.59,207.9 1188.69,292.37 1210.9,257.55 2204.99,166.56 3138.84,-127.97 955.74,-301.44 1869.95,-821.87 2885.28,-1403.55 2802.47,-1605.54 5919.42,-1238.77 9102.37,-864.23 507.64,59.73 1016.98,119.67 1472.91,166.6 219.19,22.43 378.68,218.32 356.25,437.51 -22.43,219.19 -218.32,378.68 -437.51,356.25 -530.76,-54.64 -1007.31,-110.72 -1482.27,-166.6 -3051.78,-359.11 -6040.27,-710.77 -8614.87,764.23 -1055.36,604.62 -2006.16,1145.74 -3041.54,1472.29 -1057.29,333.46 -2180.56,436.95 -3545.08,146.73 -519.23,-110.44 -1056.52,-236.96 -1556.52,-405.02 -2020.47,2272.86 -4481.71,2262.79 -7441.48,2250 -620.62,-2.67 -1264.22,-5.46 -1935.32,14.52 z m 14273.41,22696.24 c -142,58.58 -242.91,199.9 -291.27,381.02 -58.35,218.52 -40.24,485.07 68.11,747.76 l 0.17,0.43 c 108.3,262.33 282.82,463.63 477.41,576.95 162.29,94.51 334.18,123.49 477.14,64.52 142,-58.58 242.91,-199.91 291.27,-381.04 58.35,-218.53 40.25,-485.06 -68.11,-747.76 -108.34,-262.59 -282.91,-464 -477.58,-577.37 -162.29,-94.51 -334.17,-123.49 -477.14,-64.51 z m -1063.15,174.76 c 110.92,-415.45 372.78,-752.22 759.29,-911.95 l 0.76,-0.32 c 385.92,-159.2 808.71,-104.97 1180.24,111.4 338.92,197.39 637.26,534.32 814.71,964 l 0.37,0.87 c 177.31,429.87 203.51,878.82 102.49,1257.14 -110.96,415.59 -372.95,752.46 -759.65,912.12 l -0.38,0.16 c -385.94,159.21 -808.73,104.97 -1180.26,-111.4 -330.02,-192.2 -621.54,-516.71 -800.46,-930.31 -11.47,-21.79 -21,-44.75 -28.33,-68.67 -164.87,-419.43 -187.13,-854.71 -88.78,-1223.04 z M 44494.59,25496.31 c 337.84,225.05 523.45,595.4 550.4,1012.2 24.39,377.34 -84.54,796.95 -332.6,1169.37 l -0.72,1.09 0.72,0.48 c -5.58,8.37 -11.41,16.43 -17.47,24.21 -247.78,360.49 -585.99,614.42 -935.51,734.53 -394.18,135.45 -806.48,107.03 -1143.42,-117.4 -337.88,-225.07 -523.48,-595.4 -550.42,-1012.21 -24.4,-377.34 84.55,-796.94 332.6,-1169.36 l 0.73,-1.08 -0.73,-0.49 c 5.62,-8.44 11.48,-16.52 17.56,-24.34 247.78,-360.42 585.93,-614.3 935.41,-734.41 394.19,-135.45 806.48,-107.03 1143.45,117.41 z m -246.48,1062.2 c -10.69,-165.31 -71.37,-306.11 -179.66,-386.38 -10.34,-6.21 -20.46,-12.92 -30.32,-20.15 -116.58,-69.1 -270.48,-70.81 -427.61,-16.82 -195.22,67.09 -387.94,214.28 -534.37,426.46 -3.9,6.65 -7.99,13.23 -12.32,19.73 l -0.76,-0.42 c -148.5,223.42 -214.31,465.98 -200.62,677.65 11.14,172.47 76.69,318.25 193.96,396.46 l 0.2,0.13 c 118.27,78.78 279.08,83.23 443.42,26.76 195.21,-67.08 387.92,-214.25 534.36,-426.42 3.91,-6.67 8.02,-13.27 12.36,-19.79 l 0.74,0.45 c 148.5,-223.42 214.3,-465.98 200.62,-677.66 z m 960.82,-2075.08 118.55,107.54 6297.6,-7194.38 c 35.7,-40.79 59.32,-84.96 70.3,-130.38 10.84,-44.82 9.79,-95.24 -3.65,-149.13 -13.09,-52.52 -35.74,-96.91 -66.5,-131.56 -30.18,-33.99 -71.32,-61.41 -121.98,-80.65 l -1598.89,-607.33 c -74.71,-28.37 -152.34,-27.5 -219.84,-2.27 -67.39,25.2 -126.04,74.67 -162.95,143.53 z m -117.95,971.22 -649.4,-589.12 0.52,-0.58 c -131.81,-119.78 -170.97,-317.9 -83.33,-482.23 l 4459.68,-8318.92 c 132.09,-246.42 343.74,-424.08 587.95,-515.41 244.11,-91.27 519.51,-96.37 779.22,2.27 l 1598.89,607.33 c 172.8,65.64 320.45,167.46 437.6,299.41 116.56,131.3 199.88,289.64 244.62,469.06 44.39,178.02 44.98,356.37 3.65,527.25 -41.18,170.25 -123.58,328.83 -245.3,467.88 L 45675,25404.39 c -6.3,8.09 -12.95,15.99 -19.96,23.7 -148.42,163.09 -400.97,174.98 -564.06,26.56 z m -2750.52,8575.52 c -132.13,-38.83 -207.78,-177.44 -168.95,-309.57 38.83,-132.13 177.44,-207.78 309.57,-168.95 l 4265.19,1254.54 c 132.13,38.83 207.78,177.44 168.95,309.57 -38.83,132.13 -177.44,207.78 -309.57,168.95 z m 1476.71,3015.82 c -132.13,-38.83 -207.78,-177.44 -168.95,-309.57 38.83,-132.13 177.44,-207.78 309.57,-168.95 l 4265.18,1254.52 c 132.13,38.83 207.78,177.44 168.95,309.57 -38.83,132.13 -177.44,207.78 -309.57,168.95 z M 31160.02,31307.05 c 609.98,-771.7 1354.47,-1344.91 2123.07,-1665.66 942.97,-393.52 1925.68,-411.59 2760.43,37.76 589.75,317.46 1024.79,700.91 1327.28,1133.16 632.29,903.5 668.55,1982.09 317.33,3097.83 -332.62,1056.66 -1017.42,2149.05 -1863.34,3146.33 -1341.48,1581.53 -3105.48,2941.76 -4508.52,3538.49 -103.94,44.23 -216.16,40.96 -312.49,-0.02 l -2.1,-0.88 c -1402.71,-597.19 -3165.6,-1956.83 -4506.43,-3537.59 -845.92,-997.28 -1530.72,-2089.67 -1863.34,-3146.33 -351.22,-1115.74 -314.98,-2194.32 317.32,-3097.83 302.5,-432.26 737.54,-815.7 1327.29,-1133.16 834.75,-449.35 1817.46,-431.28 2760.43,-37.76 768.6,320.75 1513.09,893.96 2123.07,1665.66 z m 2429.33,-928.16 c -770.96,321.73 -1520.4,955.5 -2091.52,1824.47 -29.63,46.95 -69.57,88.44 -119.06,120.82 -184.67,120.81 -432.32,69.04 -553.13,-115.63 -571.54,-871.65 -1322.45,-1507.29 -2094.95,-1829.66 -725.48,-302.76 -1465.82,-325.11 -2076.05,3.38 -476.89,256.71 -821.19,556.08 -1052.29,886.3 -471.95,674.38 -487.77,1515.11 -207.94,2404.07 298.43,948.05 927.85,1945.85 1710.22,2868.21 1214.77,1432.15 2782.12,2665.42 4055.39,3250.47 1273.26,-585.05 2840.62,-1818.32 4055.39,-3250.47 782.37,-922.36 1411.79,-1920.16 1710.22,-2868.21 279.83,-888.96 264,-1729.69 -207.95,-2404.07 -231.09,-330.23 -575.4,-629.59 -1052.28,-886.3 -610.23,-328.49 -1350.57,-306.14 -2076.05,-3.38 z m 4588.69,-7625.31 c 449.89,199.86 756,603.58 888.46,1099.67 123.43,462.31 94.16,1010.22 -115.79,1538.61 -7.23,23.46 -16.58,45.99 -27.8,67.38 -223.77,522.66 -589.73,932.02 -1003.83,1173.18 -455.39,265.21 -971.59,332.52 -1440.6,139.04 -469.98,-193.87 -789.14,-605.95 -925.16,-1115.43 -123.44,-462.32 -94.16,-1010.22 115.79,-1538.61 7.23,-23.46 16.59,-45.99 27.8,-67.39 223.77,-522.67 589.73,-932.01 1003.83,-1173.17 443.7,-258.4 945.11,-328.89 1404.37,-153.38 25.47,7.66 49.87,17.78 72.93,30.1 z m 116.58,1305.93 c -73.37,-274.82 -231.28,-491.25 -456.26,-584.13 l -0.16,-0.06 c -226.04,-93.25 -491.31,-51.19 -737.46,92.16 -278.52,162.21 -527.39,448.19 -680.55,819.44 l -0.05,0.12 c -153.25,371.51 -178.32,750.44 -94.94,1062.73 73.39,274.89 231.34,491.35 456.4,584.19 226.03,93.24 491.33,51.19 737.48,-92.16 278.48,-162.18 527.34,-448.14 680.52,-819.37 l 0.08,-0.19 c 153.26,-371.51 178.31,-750.44 94.94,-1062.73 z m 417.32,-2948.97 419.13,251.48 6637.07,-11520.22 c 49.25,-85.49 75.79,-174.44 79.4,-262.79 3.61,-88.09 -15.71,-179.12 -58.11,-269.03 -42.05,-89.15 -99.77,-161.54 -169.95,-214.71 -70.81,-53.64 -156.29,-89.85 -253.17,-106.15 L 43047.87,8599.1 c -144.62,-24.33 -284.96,5.61 -399.04,76.2 -114.28,70.73 -203.61,182.42 -245.96,321.44 z m 356.92,1144.16 -1033.5,-620.1 0.14,-0.23 c -153.41,-91.62 -230.9,-278.89 -176.7,-457.59 l 3781.57,-12411.3 c 100.96,-331.37 315.14,-598.37 589.7,-768.3 274.79,-170.05 608.77,-242.82 949.06,-185.58 l 2318.44,390.02 c 227.16,38.21 430.84,125.59 603.17,256.15 172.97,131.04 312.45,303.56 410.57,511.59 97.76,207.27 141.99,424.21 133.11,640.91 -8.86,216.43 -70.9,429.2 -185.66,628.41 l -6830.65,11856.21 c -3.87,7.51 -7.97,14.96 -12.37,22.31 -113.04,188.98 -357.9,250.54 -546.88,137.5 z m -18230.88,22436.27 -2.92,1.36 -6.79,3.19 -2.54,1.24 -7.22,3.54 -3.53,1.8 -6.37,3.27 -0.24,0.12 c -3.04,1.59 -6.07,3.2 -9.09,4.85 l -0.56,0.31 -0.73,0.41 -8.82,4.91 c -3.17,1.8 -6.33,3.61 -9.47,5.47 -6.09,3.59 -12.1,7.28 -18.07,11.07 l -0.61,0.39 c -2.83,1.8 -5.67,3.63 -8.47,5.48 l -0.72,0.47 -7.62,5.12 -1.64,1.1 -6.38,4.45 -2.87,2 -6.49,4.68 -2.37,1.72 -5.74,4.27 -3.46,2.6 -5.84,4.5 -2.61,2.03 -6.99,5.57 -1.35,1.09 -6.6,5.42 -2.6,2.16 -5.06,4.3 -3.56,3.06 -5.51,4.84 -2.43,2.15 -6.1,5.52 -2.28,2.09 -5.48,5.12 -2.79,2.63 -5.78,5.56 -2.07,2.03 -5.59,5.54 -2.77,2.79 -4.99,5.1 -3.21,3.35 -4.7,4.94 -2.5,2.68 -5.29,5.73 -2.66,2.94 -5.03,5.62 -2.14,2.45 -5.24,6.01 -2.52,2.96 -5.23,6.2 -0.82,1 -6.48,7.87 -0.64,0.81 -6.48,8.12 -0.84,1.07 -5.85,7.55 -2.2,2.9 c -4,5.27 -7.95,10.6 -11.84,15.99 l -6.49,9.11 -0.19,0.27 -1.06,1.53 c -4.05,5.8 -8.05,11.67 -11.98,17.6 l -0.27,0.4 -6.09,9.34 c -3.82,5.93 -7.56,11.92 -11.26,17.97 l -1.36,2.21 -3.26,5.44 -3.17,5.3 -4.26,7.34 -1.22,2.1 -5.26,9.3 -0.55,0.98 -4.83,8.79 -1.08,1.99 -3.87,7.25 -2.08,3.93 -3.62,7 -1.89,3.67 -3.7,7.37 -1.56,3.14 -3.73,7.63 -1.9,3.96 -3.28,6.94 -1.84,3.95 -3.38,7.35 -1.58,3.48 -3.48,7.83 -1.88,4.31 -2.68,6.19 -2.26,5.33 -2.76,6.61 -1.73,4.23 -3.34,8.25 -1.05,2.66 -3.12,7.96 -2.06,5.39 -2.46,6.48 -1.76,4.77 -2.63,7.16 -2.18,6.12 -1.85,5.22 -2.14,6.21 -2.28,6.68 -1.48,4.47 -2.47,7.48 -1.24,3.88 -2.83,8.9 -0.03,0.08 -3.34,10.86 -0.39,1.29 -3.35,11.37 -2.7,9.5 -0.93,3.25 -0.12,0.44 -3.38,12.4 -3.83,14.69 -3.67,14.78 c -1.2,4.94 -2.37,9.9 -3.51,14.88 -1.14,4.97 -2.26,9.96 -3.35,14.97 l -3.19,15.06 c -1.04,5.03 -2.04,10.08 -3.02,15.15 -0.98,5.06 -1.94,10.13 -2.87,15.23 -1.86,10.19 -3.61,20.43 -5.24,30.73 h -0.01 c -0.82,5.15 -1.6,10.31 -2.37,15.49 h -0.01 c -0.77,5.18 -1.5,10.37 -2.21,15.57 l -2.05,15.65 c -0.66,5.23 -1.29,10.48 -1.89,15.73 -0.6,5.25 -1.18,10.52 -1.72,15.8 -0.55,5.28 -1.07,10.57 -1.56,15.87 v 0.01 c -0.49,5.3 -0.96,10.61 -1.39,15.94 v 0.01 c -0.44,5.32 -0.84,10.66 -1.23,16.01 -0.38,5.35 -0.72,10.71 -1.05,16.09 h -0.01 c -0.33,5.37 -0.62,10.76 -0.89,16.15 v 0.01 c -0.27,5.39 -0.5,10.8 -0.72,16.21 v 0.01 l -0.56,16.27 v 0.01 c -0.16,5.43 -0.29,10.88 -0.39,16.34 -0.1,5.46 -0.18,10.93 -0.22,16.41 -0.05,5.48 -0.06,10.97 -0.05,16.46 l 0.12,16.52 v 0.01 c 0.07,5.51 0.16,11.04 0.29,16.57 0.12,5.53 0.28,11.08 0.46,16.63 l 0.63,16.68 0.8,16.73 v 0.01 l 0.98,16.77 v 0.01 c 0.35,5.6 0.72,11.2 1.14,16.82 v 0.01 l 1.32,16.86 v 0.01 l 1.5,16.91 c 0.53,5.65 1.07,11.3 1.66,16.96 0.58,5.66 1.2,11.31 1.84,16.99 v 0.01 c 0.64,5.67 1.32,11.34 2.02,17.03 l 2.19,17.07 v 0.01 l 2.37,17.1 c 0.82,5.71 1.66,11.42 2.54,17.14 0.88,5.72 1.78,11.44 2.72,17.17 v 0.01 c 0.93,5.73 1.9,11.46 2.89,17.19 v 0.01 c 0.99,5.74 2.03,11.48 3.08,17.22 v 0.01 c 1.05,5.74 2.14,11.49 3.25,17.25 1.11,5.76 2.26,11.51 3.43,17.28 v 0.01 l 3.6,17.29 v 0.01 c 1.23,5.77 2.5,11.55 3.79,17.32 v 0.01 c 1.29,5.78 2.62,11.54 3.97,17.33 v 0.01 c 1.35,5.78 2.73,11.58 4.14,17.36 h 0.01 c 1.41,5.79 2.84,11.58 4.32,17.38 1.47,5.8 2.98,11.59 4.51,17.39 v 0.01 c 1.53,5.8 3.1,11.59 4.69,17.4 1.59,5.8 3.22,11.62 4.87,17.42 1.65,5.81 3.34,11.6 5.05,17.42 l 0.01,0.01 c 1.71,5.81 3.46,11.62 5.23,17.43 l 5.42,17.44 c 1.84,5.82 3.7,11.63 5.6,17.44 l 0.01,0.01 5.78,17.44 0.01,0.01 5.96,17.44 0.01,0.01 6.15,17.44 0.01,0.01 c 2.08,5.81 4.18,11.62 6.33,17.43 l 0.01,0.01 c 2.14,5.81 4.31,11.63 6.52,17.44 l 0.01,0.01 c 2.21,5.81 4.44,11.62 6.71,17.42 l 0.01,0.01 c 2.26,5.81 4.56,11.62 6.89,17.42 l 0.01,0.01 c 2.33,5.81 4.68,11.6 7.08,17.41 l 0.01,0.01 0.04,0.11 0.04,0.08 c 2.38,5.77 4.78,11.53 7.21,17.26 l 0.04,0.08 7.35,17.13 0.04,0.08 c 2.47,5.69 4.96,11.36 7.48,17.01 l 0.04,0.08 c 5.05,11.32 10.2,22.56 15.42,33.71 l 0.04,0.08 7.89,16.63 0.04,0.07 8.02,16.5 0.04,0.07 8.15,16.37 0.04,0.07 c 2.74,5.43 5.49,10.85 8.27,16.24 l 0.04,0.07 c 2.78,5.39 5.58,10.76 8.41,16.11 l 0.04,0.06 c 5.66,10.72 11.39,21.35 17.22,31.89 l 0.04,0.06 c 2.91,5.26 5.82,10.5 8.77,15.71 l 0.04,0.06 c 2.95,5.21 5.91,10.41 8.9,15.58 l 0.04,0.05 c 2.99,5.17 5.98,10.32 9.01,15.44 l 0.04,0.06 9.13,15.31 0.04,0.05 9.25,15.17 0.04,0.05 9.36,15.03 0.04,0.05 c 3.14,4.99 6.29,9.95 9.47,14.89 l 0.04,0.05 9.59,14.75 0.04,0.05 c 6.44,9.8 12.96,19.5 19.54,29.12 l 0.04,0.05 9.95,14.36 c 3.32,4.75 6.66,9.48 10.02,14.18 l 0.04,0.05 10.12,14.03 0.04,0.04 c 3.39,4.65 6.79,9.28 10.22,13.89 l 0.04,0.04 10.33,13.74 0.03,0.04 c 3.46,4.56 6.94,9.1 10.43,13.6 l 0.03,0.04 c 3.49,4.51 7,8.99 10.53,13.44 l 0.04,0.04 10.62,13.3 0.03,0.03 10.72,13.15 0.03,0.04 c 3.59,4.36 7.19,8.69 10.82,12.99 l 0.03,0.04 c 3.62,4.31 7.26,8.58 10.91,12.84 l 0.03,0.03 c 3.65,4.26 7.31,8.49 10.99,12.69 l 0.03,0.03 c 3.68,4.21 7.38,8.38 11.09,12.54 l 0.03,0.03 11.17,12.39 0.03,0.02 c 3.74,4.1 7.49,8.18 11.26,12.23 l 0.03,0.03 11.35,12.07 0.02,0.03 11.43,11.91 0.03,0.02 c 3.83,3.95 7.65,7.86 11.51,11.76 l 0.03,0.02 c 3.85,3.89 7.71,7.76 11.59,11.6 l 0.02,0.02 c 3.88,3.84 7.76,7.65 11.67,11.44 l 0.03,0.02 c 3.9,3.78 7.82,7.55 11.75,11.28 l 0.02,0.02 11.82,11.12 0.02,0.01 11.91,10.96 0.01,0.01 c 3.98,3.63 7.98,7.22 11.98,10.79 l 0.02,0.02 12.04,10.63 0.02,0.01 c 4.03,3.52 8.07,6.99 12.12,10.46 l 0.01,0.01 c 4.05,3.46 8.11,6.9 12.19,10.3 l 0.01,0.01 c 4.07,3.41 8.16,6.78 12.25,10.13 l 0.02,0.01 c 4.09,3.35 8.2,6.67 12.31,9.96 l 0.02,0.01 c 4.12,3.29 8.24,6.56 12.38,9.79 l 0.01,0.01 c 4.14,3.24 8.28,6.44 12.44,9.62 l 0.02,0.01 c 4.16,3.18 8.32,6.33 12.5,9.45 l 0.01,0.01 12.57,9.28 c 4.2,3.07 8.41,6.1 12.63,9.11 l 12.68,8.94 h 0.01 c 4.24,2.95 8.47,5.87 12.73,8.76 h 0.01 l 12.79,8.59 c 4.27,2.84 8.56,5.63 12.84,8.41 h 0.01 l 12.89,8.23 c 4.31,2.71 8.62,5.4 12.94,8.05 4.32,2.66 8.66,5.28 12.99,7.88 4.34,2.59 8.68,5.16 13.03,7.69 l 11.14,6.41 0.41,0.24 10.75,6.03 0.83,0.46 2.6,1.42 8.85,4.84 1.42,0.76 9.87,5.26 0.49,0.26 9.58,4.98 0.42,0.21 7.56,3.84 4.34,2.19 5.92,2.92 5.54,2.72 6.78,3.26 4.57,2.18 5.72,2.67 6.38,2.96 6.32,2.86 3.96,1.78 8.03,3.54 4.05,1.76 6.77,2.89 4.4,1.86 7.77,3.21 3.81,1.55 7.94,3.18 2.89,1.14 8.39,3.25 4.4,1.67 5.91,2.21 5.77,2.12 7.08,2.55 3.46,1.21 7.81,2.72 3.71,1.26 8.07,2.69 3.17,1.03 9.01,2.88 0.95,0.3 10.14,3.12 2.9,0.86 8.34,2.45 3.66,1.03 7.87,2.21 3.77,1.01 7.97,2.13 2.05,0.52 c 18.44,4.76 36.85,8.92 55.24,12.45 l 0.4,0.08 10.97,2.02 c 10.9,1.94 21.79,3.65 32.66,5.16 l 1.69,0.24 c 7.14,0.97 14.28,1.85 21.4,2.62 l 1.32,0.15 10.04,1.01 1.2,0.12 9.64,0.83 1.95,0.16 9.32,0.68 2.06,0.13 9.09,0.53 2.31,0.12 8.39,0.37 3.34,0.12 8.93,0.25 1.6,0.03 8.66,0.12 3.67,0.03 8.29,-0.02 1.88,-0.01 9.63,-0.16 1.34,-0.03 10.31,-0.34 h 0.15 l 10.49,-0.5 1.27,-0.07 10.01,-0.62 0.81,-0.06 10.04,-0.79 1.51,-0.13 c 3.1,-0.27 6.2,-0.55 9.29,-0.87 l 2.44,-0.26 8.83,-0.98 1.16,-0.14 c 35.89,-4.28 71.24,-11.38 105.85,-21.38 l 0.82,-0.23 c 6.86,-1.99 13.69,-4.1 20.49,-6.32 l 0.43,-0.14 9.55,-3.22 1.05,-0.36 9.7,-3.45 0.41,-0.15 c 15.43,-7.55 31.23,-14.04 47.32,-19.48 39.62,-18.2 77.05,-40.33 112.19,-65.99 l 0.99,-0.72 8.2,-6.11 0.46,-0.35 8.26,-6.37 0.47,-0.36 8.1,-6.46 0.52,-0.41 8.01,-6.59 0.5,-0.42 c 2.73,-2.28 5.44,-4.58 8.13,-6.91 l 0.17,-0.15 c 5.43,-4.69 10.81,-9.47 16.12,-14.34 l 0.61,-0.56 c 2.55,-2.34 5.07,-4.71 7.59,-7.09 l 0.45,-0.42 7.54,-7.25 0.49,-0.47 7.35,-7.29 0.79,-0.8 6.84,-6.99 1.1,-1.14 6.82,-7.17 0.72,-0.78 6.88,-7.46 0.93,-1.03 6.32,-7.05 1.78,-2.03 5.53,-6.34 2.34,-2.76 5.34,-6.33 0.9,-1.08 c 2.15,-2.59 4.3,-5.18 6.42,-7.81 l 0.51,-0.64 c 4.56,-5.64 9.05,-11.35 13.48,-17.14 l 1.62,-2.15 c 8.74,-11.51 17.25,-23.31 25.49,-35.4 h 0.01 c 2.17,-3.19 4.33,-6.39 6.46,-9.62 3.63,-5.47 7.19,-11.01 10.71,-16.59 l 1.91,-3 0.67,-1.07 5.48,-8.9 0.21,-0.35 c 3.43,-5.65 6.8,-11.36 10.13,-17.12 l 2.19,-3.78 3.08,-5.44 2.86,-5.11 2.98,-5.41 2.75,-5.06 3.86,-7.23 1.48,-2.79 3.7,-7.15 2.26,-4.41 3.18,-6.33 2.07,-4.17 3.41,-6.98 2.02,-4.19 3.02,-6.39 2.43,-5.21 2.65,-5.76 2.4,-5.31 3.02,-6.8 1.63,-3.73 3.32,-7.68 1.63,-3.86 3.04,-7.26 2.38,-5.83 1.84,-4.54 3,-7.56 1.85,-4.72 2.45,-6.4 2.13,-5.63 2.02,-5.45 2.57,-7.03 1.43,-3.99 2.73,-7.7 1.92,-5.59 2.21,-6.47 1.8,-5.43 2.11,-6.37 2.34,-7.34 1.34,-4.19 0.54,-1.73 3.33,-10.85 3.75,-12.66 0.26,-0.88 3.37,-11.88 0.12,-0.44 c 1.15,-4.11 2.28,-8.25 3.38,-12.4 l 3.83,-14.69 3.67,-14.78 c 1.2,-4.94 2.37,-9.9 3.51,-14.88 1.14,-4.97 2.26,-9.96 3.35,-14.97 1.09,-5 2.15,-10.03 3.19,-15.06 1.04,-5.03 2.04,-10.08 3.02,-15.15 h 0.01 l 2.86,-15.23 2.71,-15.32 v -0.01 l 2.54,-15.4 2.38,-15.49 c 0.77,-5.18 1.49,-10.37 2.21,-15.57 l 2.05,-15.65 c 0.66,-5.23 1.29,-10.47 1.89,-15.72 v -0.01 l 1.72,-15.8 c 0.55,-5.28 1.07,-10.57 1.56,-15.87 v -0.01 l 1.39,-15.94 v -0.01 c 0.44,-5.32 0.85,-10.66 1.23,-16.01 l 1.06,-16.08 v -0.01 c 0.33,-5.37 0.62,-10.76 0.89,-16.15 v -0.01 c 0.54,-10.79 0.97,-21.62 1.28,-32.49 v -0.01 c 0.16,-5.43 0.29,-10.88 0.39,-16.34 0.1,-5.46 0.18,-10.91 0.22,-16.4 v -0.01 c 0.05,-5.48 0.06,-10.97 0.05,-16.46 l -0.12,-16.52 v -0.01 c -0.07,-5.51 -0.16,-11.03 -0.29,-16.56 v -0.01 c -0.12,-5.53 -0.28,-11.07 -0.46,-16.62 v -0.01 l -0.63,-16.68 -0.8,-16.73 v -0.01 l -0.97,-16.77 -0.01,-0.01 c -0.35,-5.6 -0.72,-11.2 -1.14,-16.82 v -0.01 l -1.32,-16.86 v -0.01 c -0.47,-5.63 -0.96,-11.25 -1.49,-16.9 l -0.01,-0.01 -1.66,-16.95 v -0.01 c -0.58,-5.66 -1.2,-11.32 -1.84,-16.99 v -0.01 l -2.01,-17.02 -0.01,-0.01 -2.19,-17.07 v -0.01 l -2.36,-17.09 -0.01,-0.01 c -0.82,-5.7 -1.65,-11.41 -2.53,-17.13 l -0.01,-0.01 -2.71,-17.16 -0.01,-0.02 c -0.93,-5.72 -1.9,-11.46 -2.89,-17.19 l -0.01,-0.01 -3.06,-17.22 -0.01,-0.01 c -1.05,-5.74 -2.12,-11.49 -3.24,-17.24 l -0.01,-0.01 -3.42,-17.27 -0.01,-0.02 c -1.17,-5.76 -2.37,-11.53 -3.6,-17.29 l -0.01,-0.01 -3.78,-17.31 v -0.02 l -3.96,-17.33 -0.01,-0.01 -4.14,-17.35 -0.01,-0.01 -4.32,-17.37 -0.01,-0.01 -4.5,-17.38 v -0.02 c -1.53,-5.79 -3.1,-11.6 -4.69,-17.39 v -0.01 c -1.59,-5.8 -3.21,-11.61 -4.87,-17.41 l -0.01,-0.01 c -1.65,-5.8 -3.32,-11.61 -5.04,-17.41 l -0.01,-0.02 c -1.71,-5.8 -3.46,-11.61 -5.23,-17.42 l -0.01,-0.01 c -1.77,-5.81 -3.58,-11.63 -5.41,-17.43 l -0.01,-0.01 c -1.84,-5.81 -3.69,-11.62 -5.59,-17.43 l -0.01,-0.02 c -1.9,-5.81 -3.82,-11.63 -5.78,-17.43 l -0.01,-0.02 c -1.96,-5.81 -3.94,-11.63 -5.96,-17.43 l -0.01,-0.02 -6.15,-17.43 -0.01,-0.02 -6.33,-17.42 -0.01,-0.02 c -2.14,-5.8 -4.31,-11.62 -6.52,-17.43 l -0.01,-0.02 c -2.2,-5.8 -4.45,-11.61 -6.71,-17.41 l -0.01,-0.02 c -2.27,-5.8 -4.56,-11.61 -6.89,-17.41 l -0.01,-0.02 c -2.33,-5.8 -4.68,-11.61 -7.08,-17.4 l -0.01,-0.02 -0.05,-0.12 -0.03,-0.09 c -2.38,-5.77 -4.8,-11.52 -7.22,-17.25 l -0.03,-0.09 c -2.43,-5.73 -4.89,-11.43 -7.36,-17.12 l -0.03,-0.09 c -2.47,-5.69 -4.97,-11.35 -7.49,-17 l -0.03,-0.09 -7.63,-16.87 -0.04,-0.09 c -2.56,-5.61 -5.15,-11.18 -7.76,-16.74 l -0.03,-0.08 c -5.04,-10.74 -10.16,-21.41 -15.36,-31.99 l -0.59,-1.21 -0.04,-0.08 c -2.7,-5.47 -5.41,-10.93 -8.15,-16.36 l -0.04,-0.08 -8.28,-16.23 -0.03,-0.07 c -2.78,-5.39 -5.59,-10.76 -8.41,-16.1 l -0.04,-0.08 c -2.82,-5.34 -5.66,-10.66 -8.53,-15.96 l -0.04,-0.08 c -2.86,-5.3 -5.75,-10.58 -8.65,-15.83 l -0.04,-0.07 c -2.91,-5.26 -5.83,-10.49 -8.78,-15.7 l -0.03,-0.07 -8.9,-15.57 -0.04,-0.07 -9.01,-15.43 -0.04,-0.07 c -3.02,-5.12 -6.07,-10.21 -9.13,-15.29 l -0.04,-0.07 c -3.06,-5.07 -6.15,-10.12 -9.25,-15.15 l -0.04,-0.07 c -3.1,-5.03 -6.22,-10.03 -9.36,-15.01 l -0.04,-0.07 -9.48,-14.87 -0.03,-0.06 c -3.18,-4.94 -6.37,-9.85 -9.59,-14.74 l -0.04,-0.06 c -3.21,-4.89 -6.45,-9.76 -9.7,-14.6 l -0.04,-0.06 -9.8,-14.45 -0.04,-0.06 -9.91,-14.31 -0.04,-0.06 -10.02,-14.16 -0.04,-0.06 c -3.36,-4.7 -6.73,-9.38 -10.12,-14.02 l -0.04,-0.06 -10.22,-13.87 -0.04,-0.05 -1.4,-1.87 z m 47.67,-19.6 -0.41,0.15 c -15.41,7.52 -31.19,14.01 -47.26,19.45 z m -966.76,-222.31 c 12.67,-17.31 25.63,-34.36 38.93,-51.09 v -0.01 c 4.66,-5.87 9.37,-11.7 14.11,-17.5 l 0.01,-0.01 c 4.74,-5.8 9.52,-11.56 14.34,-17.28 l 0.01,-0.01 1.14,-1.34 c 9.28,-10.99 18.68,-21.85 28.24,-32.56 v -0.01 c 4.97,-5.57 9.98,-11.1 15.03,-16.6 l 0.01,-0.02 c 5.05,-5.49 10.14,-10.95 15.26,-16.37 l 0.01,-0.01 c 5.12,-5.42 10.29,-10.8 15.49,-16.14 v -0.01 c 5.2,-5.34 10.44,-10.65 15.72,-15.91 l 0.01,-0.01 c 5.28,-5.26 10.59,-10.48 15.94,-15.67 l 0.01,-0.01 c 10.7,-10.37 21.57,-20.58 32.57,-30.63 l 0.01,-0.02 c 16.51,-15.07 33.36,-29.78 50.54,-44.1 l 0.01,-0.01 c 5.73,-4.77 11.49,-9.5 17.29,-14.19 l 0.01,-0.02 c 5.8,-4.69 11.64,-9.33 17.51,-13.93 l 0.01,-0.01 c 5.87,-4.6 11.78,-9.16 17.73,-13.68 l 0.01,-0.01 c 5.95,-4.52 11.93,-8.99 17.95,-13.42 l 0.01,-0.01 c 6.02,-4.43 12.09,-8.82 18.18,-13.16 l 0.01,-0.01 c 6.09,-4.34 12.22,-8.64 18.39,-12.89 l 0.01,-0.01 c 12.34,-8.51 24.82,-16.84 37.45,-24.99 l 0.01,-0.01 c 6.31,-4.07 12.66,-8.1 19.05,-12.08 l 0.01,-0.01 c 6.38,-3.98 12.8,-7.91 19.26,-11.8 l 0.01,-0.01 c 6.46,-3.89 12.95,-7.73 19.48,-11.53 l 0.01,-0.01 c 13.07,-7.59 26.26,-15.01 39.61,-22.22 l 0.01,-0.01 c 6.67,-3.61 13.39,-7.16 20.13,-10.67 l 0.01,-0.01 c 6.74,-3.51 13.52,-6.98 20.34,-10.39 l 0.01,-0.01 c 6.81,-3.41 13.65,-6.79 20.54,-10.1 l 0.01,-0.01 c 6.88,-3.31 13.81,-6.58 20.77,-9.8 l 0.01,-0.01 c 6.96,-3.21 13.94,-6.38 20.97,-9.51 l 0.01,-0.01 1.07,-0.57 0.01,-0.01 1.07,-0.56 0.02,-0.01 1.07,-0.56 0.01,-0.01 1.07,-0.55 0.02,-0.01 1.07,-0.55 0.02,-0.02 1.07,-0.54 0.02,-0.02 1.08,-0.54 0.01,-0.01 1.08,-0.54 0.02,-0.02 1.08,-0.53 0.02,-0.02 1.07,-0.53 0.03,-0.01 1.07,-0.53 0.03,-0.02 1.08,-0.52 0.02,-0.02 1.08,-0.52 0.03,-0.01 1.08,-0.52 0.02,-0.02 1.08,-0.51 0.03,-0.02 1.08,-0.51 0.03,-0.01 1.08,-0.51 0.03,-0.02 1.09,-0.5 0.03,-0.02 1.08,-0.5 0.04,-0.01 1.08,-0.5 0.03,-0.02 1.09,-0.49 0.03,-0.02 1.09,-0.49 0.03,-0.01 1.09,-0.49 0.04,-0.02 1.09,-0.48 0.03,-0.02 1.09,-0.48 0.04,-0.01 1.09,-0.48 0.04,-0.02 1.09,-0.47 0.04,-0.02 1.09,-0.47 0.04,-0.01 1.1,-0.47 0.04,-0.02 1.09,-0.46 0.04,-0.02 1.1,-0.46 0.04,-0.01 1.1,-0.46 0.04,-0.02 1.1,-0.45 0.04,-0.02 1.1,-0.44 0.05,-0.02 1.09,-0.45 0.05,-0.02 1.1,-0.44 0.05,-0.02 1.1,-0.43 0.05,-0.02 1.1,-0.43 0.05,-0.02 1.1,-0.43 0.05,-0.02 1.1,-0.43 0.05,-0.02 1.11,-0.42 0.05,-0.02 1.1,-0.42 0.05,-0.02 1.11,-0.41 0.05,-0.02 1.11,-0.42 0.05,-0.02 1.11,-0.4 0.06,-0.02 1.1,-0.41 0.06,-0.02 1.11,-0.4 0.06,-0.02 1.11,-0.4 0.05,-0.02 1.11,-0.39 0.06,-0.02 1.11,-0.39 0.06,-0.02 1.12,-0.39 0.05,-0.02 1.12,-0.38 0.06,-0.02 1.11,-0.38 0.06,-0.02 1.12,-0.38 0.06,-0.02 1.12,-0.37 0.06,-0.02 1.12,-0.37 0.06,-0.02 1.12,-0.37 0.06,-0.02 1.12,-0.36 0.06,-0.02 1.12,-0.36 0.07,-0.02 1.12,-0.35 0.07,-0.02 1.12,-0.36 0.07,-0.02 1.12,-0.34 0.07,-0.02 1.12,-0.35 0.07,-0.02 1.12,-0.34 0.07,-0.02 c 7.15,-2.73 14.32,-5.42 21.49,-8.03 l 0.07,-0.02 c 7.17,-2.61 14.36,-5.18 21.55,-7.67 l 0.07,-0.02 c 7.19,-2.5 14.39,-4.93 21.6,-7.31 l 0.07,-0.02 c 7.21,-2.38 14.43,-4.69 21.66,-6.95 l 0.07,-0.02 c 7.23,-2.26 14.48,-4.47 21.72,-6.61 l 0.06,-0.01 c 7.25,-2.14 14.5,-4.22 21.77,-6.25 l 0.07,-0.01 c 7.26,-2.02 14.53,-4 21.81,-5.91 l 0.07,-0.01 c 7.28,-1.91 14.57,-3.76 21.86,-5.55 l 0.06,-0.01 c 7.3,-1.79 14.6,-3.52 21.91,-5.2 l 0.06,-0.01 c 14.64,-3.36 29.31,-6.48 44,-9.37 l 0.06,-0.01 c 14.69,-2.9 29.41,-5.55 44.15,-7.99 l 0.06,-0.01 c 7.36,-1.21 14.73,-2.38 22.1,-3.48 h 0.05 c 7.37,-1.1 14.75,-2.15 22.13,-3.14 h 0.06 c 7.38,-0.99 14.76,-1.93 22.15,-2.8 l 0.06,-0.01 c 7.39,-0.87 14.78,-1.69 22.18,-2.46 h 0.05 c 7.4,-0.76 14.8,-1.47 22.21,-2.12 h 0.05 c 7.41,-0.65 14.82,-1.25 22.23,-1.79 h 0.05 c 22.27,-1.62 44.57,-2.74 66.89,-3.36 h 0.05 c 14.89,-0.41 29.78,-0.61 44.68,-0.58 7.44,0.01 14.88,0.08 22.31,0.2 h 0.05 c 7.44,0.12 14.87,0.3 22.31,0.53 h 0.05 c 7.44,0.23 14.88,0.52 22.32,0.85 l 0.04,0.01 c 7.44,0.34 14.88,0.72 22.32,1.17 l 0.04,0.01 c 7.44,0.45 14.88,0.94 22.32,1.49 l 0.04,0.01 c 7.44,0.55 14.89,1.16 22.32,1.82 h 0.03 c 7.44,0.66 14.87,1.38 22.31,2.14 l 0.04,0.01 c 7.43,0.77 14.88,1.59 22.31,2.46 h 0.03 c 7.44,0.87 14.86,1.8 22.29,2.78 l 0.04,0.01 c 7.43,0.98 14.86,2 22.28,3.09 h 0.03 c 7.43,1.09 14.85,2.22 22.27,3.41 l 0.03,0.01 c 7.42,1.19 14.84,2.42 22.25,3.72 l 0.03,0.01 c 7.41,1.29 14.82,2.63 22.23,4.03 l 0.03,0.01 c 7.41,1.4 14.81,2.84 22.21,4.34 l 0.02,0.01 c 7.4,1.5 14.8,3.04 22.19,4.65 l 0.02,0.01 c 7.39,1.6 14.78,3.25 22.16,4.96 l 0.03,0.01 c 7.38,1.71 14.76,3.45 22.13,5.26 l 0.02,0.01 c 7.37,1.81 14.74,3.67 22.1,5.58 l 0.02,0.01 c 7.36,1.91 14.72,3.86 22.07,5.87 l 0.02,0.01 c 7.35,2.01 14.69,4.07 22.03,6.18 l 0.02,0.01 c 7.34,2.11 14.68,4.28 22,6.49 l 0.01,0.01 c 7.33,2.21 14.65,4.47 21.96,6.78 l 0.01,0.01 c 7.31,2.31 14.62,4.67 21.92,7.08 l 0.01,0.01 c 7.3,2.41 14.59,4.87 21.87,7.38 l 0.01,0.01 c 7.28,2.51 14.57,5.07 21.83,7.68 l 0.01,0.01 c 7.27,2.61 14.53,5.26 21.77,7.97 l 0.01,0.01 c 7.25,2.71 14.49,5.47 21.72,8.27 h 0.01 c 7.23,2.81 14.46,5.65 21.67,8.56 l 0.01,0.01 c 7.21,2.9 14.42,5.85 21.61,8.85 l 0.01,0.01 c 7.2,3 14.38,6.05 21.55,9.14 l 0.01,0.01 c 7.18,3.1 14.34,6.24 21.49,9.43 l 0.01,0.01 c 7.15,3.19 14.3,6.43 21.43,9.72 7.14,3.29 14.26,6.62 21.37,10.01 7.11,3.38 14.21,6.81 21.3,10.29 v 0.01 c 7.09,3.48 14.16,6.99 21.23,10.57 v 0.01 c 7.06,3.57 14.11,7.18 21.15,10.85 v 0.01 c 7.04,3.66 14.06,7.37 21.08,11.13 v 0.01 c 7.01,3.76 14.02,7.57 21.01,11.42 6.99,3.85 13.96,7.74 20.92,11.69 v 0.01 c 6.96,3.94 13.91,7.94 20.84,11.97 6.47,3.77 12.93,7.58 19.38,11.43 l 0.41,0.25 c 6.31,3.77 12.61,7.58 18.89,11.42 l 0.83,0.51 c 6.15,3.77 12.27,7.57 18.4,11.41 l 1.23,0.77 6.8,4.33 c 4.09,2.59 8.19,5.17 12.27,7.8 l 0.49,0.31 c 5.83,3.74 11.63,7.54 17.43,11.35 l 0.75,0.5 11.54,7.68 7.58,5.06 8.86,6.03 11.06,7.56 6.08,4.24 12.92,9.04 5.8,4.13 13.55,9.7 5.01,3.66 c 4.5,3.27 9,6.54 13.48,9.86 l 6.15,4.58 c 4.25,3.17 8.51,6.33 12.75,9.54 l 7.79,5.94 9.85,7.54 8.75,6.8 10.79,8.44 6.51,5.19 12.25,9.79 5.49,4.46 12.7,10.38 7.25,6.01 9.86,8.23 10.08,8.54 7.94,6.76 9.37,8.1 9,7.84 9,7.94 8.68,7.71 9.76,8.79 7.79,7.08 9.61,8.83 7.98,7.39 10.2,9.56 7.43,7.04 9.69,9.28 7.43,7.17 9.9,9.65 8.09,7.99 8.99,8.94 7.46,7.51 10.59,10.76 5.81,5.97 10.82,11.2 6.93,7.26 9.27,9.79 7.57,8.1 10.08,10.87 5.58,6.09 10.39,11.42 7.1,7.9 9.41,10.56 6.72,7.63 9.64,11.03 5.77,6.68 11.01,12.86 4.66,5.51 c 3.61,4.27 7.21,8.53 10.79,12.84 l 5.78,6.98 10.27,12.47 5.13,6.32 10.51,13.01 4.24,5.33 c 14.42,18.1 28.65,36.46 42.68,55.09 l 0.36,0.49 c 4.86,6.45 9.69,12.93 14.5,19.45 l 1.12,1.52 c 4.54,6.16 9.06,12.35 13.55,18.56 l 1.78,2.48 c 112.18,155.48 210.43,327.99 290.5,515.02 11.18,21.35 20.52,43.81 27.74,67.21 91.77,230.94 149.02,465.59 174.1,695.2 l 0.12,1.1 c 1.69,15.58 3.23,31.13 4.63,46.66 l 0.29,3.17 c 0.68,7.6 1.31,15.19 1.91,22.78 l 0.1,1.17 c 0.56,7.07 1.08,14.13 1.58,21.18 l 0.31,4.38 c 0.5,7.27 0.96,14.54 1.4,21.8 l 0.12,1.81 c 0.41,6.98 0.8,13.95 1.15,20.91 l 0.23,4.58 0.87,19.34 0.22,5.58 0.65,18.46 0.18,5.74 0.47,18.65 0.12,5.86 0.29,19.26 0.04,4.24 0.1,19.18 0.01,5.94 -0.08,17.34 -0.08,7.41 -0.26,17.57 -0.11,5.58 -0.45,17.98 -0.21,7.2 -0.53,15.23 -0.4,9.92 -0.67,14.83 -0.41,8.13 -0.85,15.4 -0.57,9.25 -0.94,14.4 -0.65,9.2 -1.08,14.3 -0.84,10.12 -1.14,13.36 -0.94,10.13 -1.28,13.31 -1.14,11.03 -1.33,12.43 -1.04,9.18 c -0.59,5.14 -1.17,10.28 -1.8,15.4 l -0.74,5.87 -2.2,17.25 -1.03,7.61 -1.99,14.42 -1.6,10.94 -1.82,12.2 -1.65,10.5 -2.01,12.57 -1.78,10.56 -2.07,12.15 -2.06,11.49 -2.03,11.16 -2.26,11.83 -2.1,10.94 -2.47,12.16 -2.09,10.27 -2.85,13.33 -1.94,9.02 -3.44,15.28 -1.47,6.51 -0.32,1.39 c -1.63,7.03 -3.3,14.05 -5,21.05 l -0.23,0.93 c -1.74,7.15 -3.52,14.29 -5.33,21.4 l -0.12,0.46 c -1.85,7.27 -3.74,14.5 -5.67,21.73 -2.13,7.95 -4.29,15.87 -6.5,23.78 l -0.01,0.03 c -2.21,7.89 -4.46,15.76 -6.76,23.61 l -0.02,0.05 c -2.3,7.84 -4.64,15.66 -7.02,23.45 l -0.02,0.07 c -2.38,7.78 -4.81,15.54 -7.28,23.27 l -0.03,0.1 c -2.47,7.72 -4.99,15.42 -7.54,23.09 l -0.04,0.12 c -2.55,7.66 -5.15,15.3 -7.79,22.91 l -0.05,0.14 c -2.64,7.6 -5.32,15.18 -8.04,22.73 l -0.06,0.17 c -2.72,7.54 -5.49,15.05 -8.3,22.54 l -0.07,0.19 c -2.81,7.48 -5.66,14.93 -8.55,22.36 l -0.08,0.21 c -2.89,7.42 -5.82,14.81 -8.8,22.17 l -0.09,0.23 c -2.97,7.35 -5.99,14.68 -9.05,21.98 -3.09,7.38 -6.22,14.73 -9.4,22.04 l -0.11,0.27 c -3.14,7.23 -6.32,14.42 -9.54,21.59 l -0.14,0.3 c -3.22,7.16 -6.48,14.28 -9.78,21.38 l -0.15,0.32 c -3.3,7.09 -6.65,14.15 -10.03,21.18 -6.87,14.27 -13.89,28.44 -21.11,42.45 l -0.19,0.38 c -3.54,6.89 -7.12,13.74 -10.75,20.57 l -0.21,0.39 c -3.62,6.82 -7.28,13.6 -10.99,20.36 l -0.22,0.41 c -3.7,6.75 -7.44,13.45 -11.23,20.14 -3.56,6.3 -7.16,12.56 -10.8,18.8 l -0.9,1.56 -0.26,0.45 c -3.86,6.6 -7.76,13.17 -11.7,19.71 -7.9,13.12 -15.96,26.09 -24.18,38.95 l -0.48,0.76 -0.31,0.49 c -4.09,6.38 -8.23,12.74 -12.4,19.05 l -0.33,0.51 c -4.17,6.31 -8.39,12.58 -12.63,18.82 -21.79,32.03 -44.63,63.16 -68.47,93.35 l -0.02,0.03 c -13.9,17.6 -28.16,34.87 -42.75,51.81 l -1.36,1.59 c -14.4,16.68 -29.14,33.02 -44.21,49.03 l -1.95,2.09 -0.6,0.64 c -5.06,5.35 -10.16,10.66 -15.29,15.94 -20.82,21.4 -42.25,42.16 -64.28,62.27 l -1.81,1.68 c -10.43,9.5 -21.02,18.83 -31.72,28.04 l -2.75,2.38 c -5.62,4.8 -11.27,9.57 -16.96,14.29 l -0.39,0.33 c -34.81,28.88 -71,56.19 -108.52,81.88 l -1.81,1.25 c -6.3,4.3 -12.63,8.55 -19,12.75 l -0.06,0.04 c -12.63,8.33 -25.42,16.47 -38.34,24.43 l -0.76,0.48 c -32.27,19.85 -65.46,38.52 -99.54,55.98 l -2.21,1.14 c -35.2,17.96 -71.34,34.63 -108.42,49.93 -469.01,193.48 -985.21,126.17 -1440.6,-139.04 -6.47,-3.77 -12.93,-7.58 -19.37,-11.43 h -0.01 c -6.44,-3.85 -12.89,-7.74 -19.3,-11.67 -6.42,-3.93 -12.84,-7.91 -19.22,-11.92 h -0.01 c -6.39,-4.01 -12.78,-8.07 -19.14,-12.16 h -0.01 c -6.37,-4.09 -12.72,-8.22 -19.06,-12.4 h -0.01 c -6.34,-4.17 -12.67,-8.38 -18.98,-12.64 h -0.01 c -6.31,-4.25 -12.61,-8.54 -18.9,-12.87 l -0.01,-0.01 c -6.28,-4.33 -12.55,-8.7 -18.81,-13.11 h -0.01 c -6.26,-4.41 -12.49,-8.86 -18.72,-13.35 l -0.01,-0.01 c -6.23,-4.49 -12.45,-9.01 -18.64,-13.58 -6.2,-4.57 -12.38,-9.17 -18.55,-13.82 l -0.01,-0.01 c -6.16,-4.64 -12.31,-9.33 -18.45,-14.05 -6.14,-4.73 -12.26,-9.49 -18.36,-14.29 h -0.01 c -6.1,-4.8 -12.18,-9.64 -18.25,-14.51 h -0.01 c -6.07,-4.88 -12.12,-9.8 -18.15,-14.75 h -0.01 c -6.03,-4.95 -12.05,-9.94 -18.05,-14.97 h -0.01 c -6,-5.03 -11.97,-10.1 -17.94,-15.2 h -0.01 c -5.96,-5.1 -11.91,-10.24 -17.84,-15.42 h -0.01 c -5.93,-5.18 -11.84,-10.4 -17.73,-15.65 h -0.01 c -5.89,-5.25 -11.76,-10.55 -17.62,-15.87 h -0.01 c -5.85,-5.32 -11.69,-10.69 -17.5,-16.09 h -0.01 c -5.82,-5.4 -11.61,-10.84 -17.39,-16.31 h -0.01 c -5.78,-5.47 -11.53,-10.99 -17.27,-16.53 -5.74,-5.55 -11.46,-11.13 -17.15,-16.75 h -0.01 c -5.7,-5.62 -11.37,-11.27 -17.03,-16.96 h -0.01 c -5.66,-5.69 -11.29,-11.42 -16.91,-17.18 -5.62,-5.76 -11.2,-11.55 -16.78,-17.39 h -0.01 c -5.57,-5.83 -11.12,-11.7 -16.65,-17.6 l -0.01,-0.01 c -5.53,-5.9 -11.03,-11.84 -16.52,-17.81 -5.49,-5.98 -10.94,-11.99 -16.39,-18.03 h -0.01 c -5.44,-6.04 -10.86,-12.12 -16.25,-18.23 h -0.01 c -5.4,-6.11 -10.76,-12.26 -16.11,-18.44 l -0.01,-0.01 c -5.35,-6.18 -10.67,-12.39 -15.97,-18.64 h -0.01 c -5.3,-6.25 -10.57,-12.53 -15.83,-18.85 l -0.01,-0.01 c -5.25,-6.31 -10.48,-12.67 -15.69,-19.05 h -0.01 c -5.21,-6.38 -10.38,-12.81 -15.54,-19.26 h -0.01 c -5.16,-6.45 -10.29,-12.95 -15.4,-19.46 -5.11,-6.52 -10.19,-13.08 -15.25,-19.66 h -0.01 c -5.06,-6.59 -10.08,-13.21 -15.09,-19.86 h -0.01 c -5.01,-6.65 -9.99,-13.34 -14.94,-20.05 v -0.01 c -4.95,-6.72 -9.88,-13.45 -14.79,-20.24 v -0.01 c -4.9,-6.78 -9.78,-13.59 -14.63,-20.44 v -0.01 c -4.85,-6.84 -9.68,-13.72 -14.47,-20.63 v -0.01 c -4.79,-6.91 -9.56,-13.85 -14.3,-20.82 l -0.01,-0.01 c -4.74,-6.97 -9.46,-13.98 -14.14,-21.02 v -0.01 c -4.68,-7.04 -9.34,-14.11 -13.97,-21.2 v -0.01 c -4.63,-7.1 -9.24,-14.23 -13.81,-21.39 v -0.01 c -4.57,-7.16 -9.12,-14.36 -13.63,-21.58 v -0.01 c -4.51,-7.23 -9,-14.48 -13.46,-21.77 v -0.01 c -4.46,-7.29 -8.88,-14.6 -13.28,-21.95 v -0.01 c -4.4,-7.35 -8.78,-14.72 -13.11,-22.13 v -0.01 c -4.34,-7.41 -8.65,-14.85 -12.92,-22.32 v -0.01 c -4.28,-7.47 -8.53,-14.97 -12.74,-22.5 v -0.01 c -4.22,-7.53 -8.4,-15.09 -12.56,-22.68 -4.16,-7.59 -8.28,-15.21 -12.37,-22.86 v -0.01 c -4.09,-7.65 -8.15,-15.32 -12.18,-23.03 v -0.01 c -4.03,-7.71 -8.03,-15.44 -11.99,-23.21 l -0.01,-0.01 c -3.96,-7.77 -7.89,-15.57 -11.79,-23.39 v -0.01 c -3.9,-7.82 -7.77,-15.67 -11.6,-23.55 l -0.01,-0.01 c -3.83,-7.88 -7.64,-15.79 -11.4,-23.73 v -0.01 c -3.77,-7.94 -7.5,-15.9 -11.2,-23.9 v -0.01 c -3.7,-7.99 -7.38,-16.03 -11.01,-24.08 v -0.01 c -3.63,-8.05 -7.23,-16.13 -10.8,-24.23 v -0.01 c -3.56,-8.11 -7.09,-16.24 -10.59,-24.41 v -0.01 l -0.52,-0.99 v -0.01 l -0.53,-1 v -0.01 l -0.51,-1 -0.01,-0.01 -0.51,-1 v -0.01 l -0.51,-1 -0.01,-0.01 -0.5,-1 -0.01,-0.01 -0.5,-1 v -0.01 l -0.51,-1.01 v -0.01 l -0.5,-1 v -0.01 l -0.5,-1.01 v -0.01 l -0.49,-1.01 -0.01,-0.01 -0.49,-1.01 v -0.02 l -0.49,-1.01 v -0.01 l -0.49,-1.01 v -0.01 l -0.48,-1.02 -0.01,-0.01 -0.47,-1.02 -0.01,-0.01 -0.47,-1.02 -0.01,-0.01 -0.47,-1.02 -0.01,-0.01 -0.47,-1.02 v -0.01 l -0.47,-1.02 v -0.02 l -0.47,-1.02 v -0.01 l -0.46,-1.03 -0.01,-0.01 -0.45,-1.03 -0.01,-0.01 -0.45,-1.03 -0.01,-0.01 -0.45,-1.03 -0.01,-0.01 -0.44,-1.03 -0.01,-0.02 -0.45,-1.03 v -0.01 l -0.44,-1.03 -0.01,-0.02 -0.44,-1.03 -0.01,-0.02 -0.43,-1.03 -0.01,-0.02 -0.43,-1.03 -0.01,-0.02 -0.43,-1.04 -0.01,-0.01 -0.42,-1.04 -0.01,-0.02 -0.42,-1.04 -0.01,-0.01 -0.42,-1.04 -0.01,-0.02 -0.42,-1.04 v -0.02 l -0.42,-1.04 -0.01,-0.02 -0.41,-1.04 -0.01,-0.02 -0.4,-1.05 -0.01,-0.02 -0.41,-1.04 -0.01,-0.02 -0.4,-1.05 -0.01,-0.02 -0.4,-1.04 v -0.02 l -0.4,-1.05 -0.01,-0.02 -0.39,-1.05 -0.01,-0.02 -0.39,-1.06 -0.01,-0.02 -0.39,-1.05 v -0.02 l -0.78,-2.13 v -0.02 l -0.38,-1.06 -0.01,-0.02 -0.38,-1.06 v -0.02 l -0.38,-1.06 v -0.02 l -0.38,-1.06 v -0.02 l -0.37,-1.06 -0.01,-0.03 -0.36,-1.06 -0.01,-0.02 -0.36,-1.06 v -0.03 l -0.37,-1.06 v -0.03 l -0.36,-1.06 v -0.03 l -0.36,-1.06 v -0.03 l -0.35,-1.06 -0.01,-0.03 -0.35,-1.06 v -0.03 l -0.35,-1.07 v -0.03 l -0.35,-1.06 v -0.03 l -0.34,-1.07 v -0.03 l -0.34,-1.07 c -16.41,-41.28 -31.7,-82.69 -45.91,-124.15 v -0.03 c -2.84,-8.28 -5.64,-16.57 -8.4,-24.86 v -0.03 c -2.75,-8.29 -5.46,-16.57 -8.13,-24.87 v -0.03 c -5.34,-16.6 -10.5,-33.2 -15.49,-49.81 v -0.03 c -2.49,-8.3 -4.95,-16.6 -7.36,-24.9 v -0.03 c -2.41,-8.3 -4.78,-16.6 -7.1,-24.91 v -0.03 c -4.65,-16.61 -9.12,-33.22 -13.42,-49.84 v -0.03 c -2.15,-8.3 -4.26,-16.61 -6.33,-24.91 v -0.03 c -2.06,-8.3 -4.09,-16.6 -6.07,-24.9 v -0.03 c -1.98,-8.3 -3.91,-16.6 -5.81,-24.89 v -0.03 c -3.79,-16.6 -7.42,-33.2 -10.87,-49.78 v -0.03 c -1.72,-8.29 -3.42,-16.57 -5.06,-24.86 v -0.03 c -1.64,-8.28 -3.24,-16.56 -4.8,-24.84 v -0.03 c -1.56,-8.28 -3.08,-16.55 -4.55,-24.82 v -0.03 c -1.47,-8.27 -2.91,-16.53 -4.3,-24.79 v -0.03 c -1.39,-8.26 -2.75,-16.53 -4.05,-24.78 v -0.02 c -5.23,-33.04 -9.79,-66.03 -13.7,-98.9 v -0.02 c -1.95,-16.43 -3.74,-32.85 -5.36,-49.23 v -0.02 c -1.62,-16.38 -3.08,-32.75 -4.38,-49.07 v -0.02 c -1.3,-16.32 -2.43,-32.62 -3.4,-48.88 v -0.02 c -0.97,-16.26 -1.79,-32.49 -2.43,-48.68 v -0.02 c -0.32,-8.09 -0.61,-16.18 -0.85,-24.25 v -0.02 c -0.49,-16.15 -0.81,-32.27 -0.97,-48.34 v -0.02 c -0.08,-8.03 -0.12,-16.05 -0.13,-24.06 v -0.02 c 0,-8.01 0.04,-16.02 0.11,-24.01 l 0.01,-0.01 c 0.08,-7.99 0.2,-15.97 0.35,-23.94 v -0.02 c 0.16,-7.97 0.36,-15.91 0.59,-23.86 v -0.02 c 0.24,-7.94 0.5,-15.87 0.82,-23.79 l 0.01,-0.02 c 0.32,-7.92 0.66,-15.83 1.06,-23.72 v -0.01 c 0.4,-7.9 0.83,-15.78 1.3,-23.65 l 0.01,-0.01 c 0.47,-7.87 0.98,-15.73 1.53,-23.57 v -0.01 c 0.55,-7.84 1.14,-15.68 1.77,-23.49 l 0.01,-0.01 c 0.63,-7.82 1.29,-15.61 2,-23.4 l 0.01,-0.01 c 0.71,-7.79 1.45,-15.56 2.23,-23.32 l 0.01,-0.01 c 0.79,-7.76 1.6,-15.49 2.47,-23.22 v -0.01 c 0.86,-7.73 1.77,-15.44 2.71,-23.14 v -0.01 c 0.94,-7.7 1.92,-15.37 2.94,-23.04 v -0.01 c 1.02,-7.67 2.08,-15.31 3.17,-22.94 v -0.01 c 1.1,-7.63 2.22,-15.25 3.4,-22.85 1.17,-7.61 2.38,-15.18 3.63,-22.75 v -0.01 c 1.25,-7.56 2.54,-15.11 3.86,-22.64 l 0.01,-0.01 c 1.33,-7.53 2.68,-15.04 4.08,-22.54 h 0.01 c 1.4,-7.5 2.83,-14.97 4.31,-22.43 1.48,-7.46 3,-14.9 4.55,-22.33 1.55,-7.42 3.14,-14.83 4.77,-22.21 1.63,-7.38 3.3,-14.74 5,-22.09 1.71,-7.34 3.45,-14.67 5.23,-21.98 1.78,-7.3 3.6,-14.6 5.45,-21.86 1.86,-7.27 3.75,-14.5 5.67,-21.73 2.07,-7.75 4.18,-15.48 6.34,-23.19 2.15,-7.71 4.35,-15.38 6.59,-23.04 2.24,-7.66 4.52,-15.3 6.84,-22.91 2.32,-7.61 4.69,-15.21 7.09,-22.77 2.41,-7.57 4.86,-15.09 7.35,-22.61 v -0.01 c 2.49,-7.51 5.03,-15.01 7.6,-22.47 2.57,-7.47 5.19,-14.91 7.85,-22.32 2.66,-7.42 5.35,-14.79 8.09,-22.16 v -0.01 c 2.74,-7.36 5.53,-14.69 8.35,-22 v -0.01 c 2.82,-7.31 5.69,-14.6 8.59,-21.85 h 0.01 c 2.91,-7.26 5.85,-14.49 8.84,-21.69 2.99,-7.2 6.02,-14.38 9.09,-21.53 3.07,-7.15 6.18,-14.27 9.33,-21.36 v -0.01 c 3.15,-7.09 6.34,-14.15 9.58,-21.19 3.24,-7.04 6.51,-14.04 9.83,-21.02 v -0.01 c 3.31,-6.98 6.67,-13.92 10.07,-20.84 v -0.01 c 3.4,-6.92 6.83,-13.8 10.31,-20.66 v -0.01 c 3.48,-6.86 6.99,-13.69 10.55,-20.49 l 0.01,-0.01 c 3.56,-6.8 7.15,-13.56 10.79,-20.3 v -0.01 c 3.64,-6.74 7.32,-13.45 11.04,-20.12 v -0.01 c 3.72,-6.68 7.48,-13.33 11.28,-19.94 3.8,-6.62 7.64,-13.21 11.52,-19.75 v -0.01 c 3.88,-6.55 7.8,-13.06 11.76,-19.55 v -0.01 c 3.96,-6.49 7.97,-12.94 12,-19.36 v -0.01 c 4.04,-6.42 8.11,-12.82 12.23,-19.17 l 0.01,-0.01 c 4.12,-6.35 8.27,-12.67 12.47,-18.96 v -0.01 c 4.2,-6.29 8.44,-12.54 12.71,-18.76 v -0.01 c 4.27,-6.22 8.59,-12.41 12.94,-18.56 l 0.01,-0.01 c 4.35,-6.15 8.74,-12.27 13.17,-18.35 l 0.01,-0.01 z m -847.87,-1148.54 -6830.65,-11856.21 -5.33,-9.35 h -0.01 l -5.26,-9.37 -5.18,-9.38 h -0.01 l -5.1,-9.41 h -0.01 l -5.02,-9.42 h -0.01 l -4.95,-9.45 h -0.01 l -4.87,-9.46 -4.8,-9.48 -4.72,-9.5 h -0.01 l -4.63,-9.52 h -0.01 l -4.56,-9.53 h -0.01 l -4.48,-9.55 h -0.01 l -4.41,-9.57 -4.33,-9.58 h -0.01 l -4.25,-9.61 h -0.01 l -4.17,-9.62 h -0.01 l -4.1,-9.63 -4.02,-9.65 h -0.01 l -3.94,-9.67 h -0.01 l -3.86,-9.68 h -0.01 l -3.79,-9.7 -3.71,-9.71 h -0.01 l -3.63,-9.73 h -0.01 l -3.55,-9.74 h -0.01 l -3.48,-9.76 -3.41,-9.77 -3.32,-9.78 h -0.01 l -3.25,-9.8 -3.17,-9.81 h -0.01 l -3.09,-9.83 -3.02,-9.84 -2.94,-9.85 -2.86,-9.86 h -0.01 l -2.78,-9.88 -2.71,-9.89 -2.63,-9.9 -2.55,-9.91 h -0.01 l -2.47,-9.92 -2.4,-9.94 -2.32,-9.94 -2.24,-9.96 -2.17,-9.97 -2.08,-9.97 h -0.01 l -2,-9.99 h -0.01 l -1.93,-10 -1.85,-10.01 -1.78,-10.01 -1.7,-10.03 -1.62,-10.03 -1.54,-10.05 h -0.01 l -1.46,-10.05 -1.39,-10.06 -1.31,-10.07 -1.23,-10.07 -1.16,-10.09 -1.07,-10.09 h -0.01 l -0.99,-10.1 -0.92,-10.1 h -0.01 l -0.84,-10.12 -0.76,-10.11 h -0.01 l -0.68,-10.13 -0.61,-10.13 -0.54,-10.14 -0.45,-10.14 -0.38,-10.16 -0.3,-10.16 -0.22,-10.15 -0.14,-10.16 -0.07,-10.16 0.01,-10.15 v -0.01 l 0.09,-10.15 0.17,-10.15 0.25,-10.15 v -0.01 l 0.32,-10.14 v -0.01 l 0.4,-10.14 v -0.01 l 0.48,-10.14 0.56,-10.14 v -0.01 l 0.63,-10.14 0.71,-10.14 0.79,-10.13 v -0.01 l 0.87,-10.12 v -0.01 l 0.95,-10.12 v -0.01 l 1.02,-10.12 1.11,-10.12 1.18,-10.12 1.26,-10.11 1.33,-10.11 1.42,-10.1 v -0.01 l 1.49,-10.09 1.57,-10.09 v -0.01 l 1.65,-10.08 1.73,-10.08 v -0.01 l 1.8,-10.07 1.88,-10.07 1.97,-10.06 2.04,-10.06 2.11,-10.05 2.2,-10.04 2.27,-10.03 v -0.01 l 2.35,-10.02 v -0.01 l 2.43,-10.01 2.51,-10.01 v -0.01 l 2.59,-10 2.66,-9.99 2.74,-9.99 2.82,-9.98 2.9,-9.96 v -0.01 l 2.98,-9.95 3.06,-9.95 3.13,-9.94 3.21,-9.93 3.29,-9.92 3.37,-9.91 3.45,-9.89 3.52,-9.89 3.6,-9.88 3.68,-9.86 3.76,-9.85 3.84,-9.84 3.92,-9.83 3.99,-9.82 4.08,-9.8 4.15,-9.79 4.23,-9.78 4.31,-9.76 4.38,-9.75 4.47,-9.74 4.54,-9.72 c 98.12,-208.03 237.6,-380.55 410.57,-511.59 l 8.1,-6.09 8.15,-6.02 8.19,-5.96 v -0.01 l 8.24,-5.89 8.28,-5.84 8.33,-5.77 8.37,-5.7 8.42,-5.64 v -0.01 l 8.46,-5.57 c 8.48,-5.55 17.03,-11 25.65,-16.35 l 8.63,-5.32 h 0.01 l 8.68,-5.25 8.72,-5.19 8.77,-5.12 8.81,-5.06 8.85,-4.99 h 0.01 l 8.89,-4.93 8.94,-4.86 8.98,-4.79 h 0.01 l 9.01,-4.73 h 0.01 l 9.06,-4.66 9.11,-4.6 9.15,-4.53 9.19,-4.46 9.23,-4.39 v -0.01 c 6.17,-2.91 12.36,-5.77 18.59,-8.59 l 9.35,-4.19 9.39,-4.13 h 0.01 l 9.43,-4.06 9.48,-3.99 9.51,-3.92 9.56,-3.86 9.59,-3.79 9.64,-3.72 9.67,-3.65 9.71,-3.58 9.75,-3.52 h 0.01 l 9.78,-3.44 h 0.01 l 9.82,-3.38 9.87,-3.31 9.9,-3.24 h 0.01 l 9.94,-3.17 9.98,-3.1 10.02,-3.03 10.05,-2.96 h 0.01 l 10.09,-2.89 10.13,-2.82 10.17,-2.75 10.2,-2.68 10.24,-2.61 10.28,-2.54 10.31,-2.47 10.35,-2.4 10.39,-2.33 10.42,-2.25 v -0.01 l 10.45,-2.18 10.49,-2.11 v -0.01 l 10.53,-2.03 v -0.01 l 10.56,-1.96 v -0.01 l 10.6,-1.89 v -0.01 l 10.63,-1.82 v -0.01 L 15520,29017.23 c 5.32,-0.89 10.63,-1.76 15.95,-2.59 l 15.93,-2.4 c 5.31,-0.77 10.63,-1.49 15.93,-2.2 v -0.01 c 5.31,-0.7 10.61,-1.38 15.91,-2.02 5.3,-0.64 10.59,-1.25 15.89,-1.83 l 15.89,-1.65 c 5.29,-0.52 10.57,-1 15.86,-1.46 5.29,-0.46 10.57,-0.87 15.85,-1.27 5.28,-0.39 10.56,-0.76 15.83,-1.09 v -0.01 l 15.81,-0.9 c 5.27,-0.27 10.52,-0.52 15.78,-0.73 l 15.77,-0.54 15.74,-0.36 c 5.24,-0.09 10.49,-0.15 15.72,-0.18 5.23,-0.03 10.46,-0.03 15.69,0 5.23,0.03 10.45,0.09 15.66,0.18 5.22,0.09 10.43,0.2 15.63,0.35 v 0.01 c 5.21,0.15 10.42,0.32 15.61,0.53 l 15.57,0.71 c 5.19,0.27 10.37,0.56 15.54,0.89 l 15.51,1.06 c 5.16,0.38 10.32,0.8 15.47,1.24 5.15,0.44 10.3,0.91 15.44,1.41 5.14,0.5 10.27,1.03 15.4,1.59 5.13,0.56 10.25,1.13 15.36,1.75 v 0.01 c 5.11,0.61 10.22,1.25 15.32,1.92 v 0.01 c 5.1,0.67 10.19,1.37 15.28,2.1 l 15.24,2.27 15.19,2.44 h 0.01 c 5.05,0.84 10.11,1.71 15.15,2.61 l 15.1,2.77 c 5.03,0.95 10.05,1.94 15.06,2.95 l 15.01,3.11 c 5,1.07 9.98,2.15 14.96,3.27 h 0.01 l 14.91,3.44 14.86,3.61 14.8,3.77 h 0.01 c 4.92,1.28 9.85,2.59 14.75,3.93 4.91,1.34 9.81,2.69 14.7,4.09 4.89,1.39 9.77,2.81 14.64,4.26 l 14.58,4.41 v 0.01 c 4.85,1.5 9.7,3.01 14.53,4.57 4.83,1.55 9.65,3.12 14.46,4.73 l 14.4,4.89 0.01,0.01 c 4.79,1.66 9.57,3.33 14.34,5.04 v 0.01 c 4.77,1.71 9.53,3.44 14.27,5.2 h 0.01 l 14.21,5.36 v 0.01 c 4.73,1.81 9.44,3.64 14.14,5.51 h 0.01 l 14.07,5.67 v 0.01 c 4.68,1.92 9.35,3.85 14.01,5.82 h 0.01 l 13.93,5.98 h 0.01 l 13.86,6.13 h 0.01 l 13.79,6.28 v 0.01 l 13.72,6.43 h 0.01 l 13.64,6.58 h 0.01 l 13.57,6.73 v 0.01 l 13.49,6.87 0.01,0.01 13.41,7.02 0.01,0.01 c 4.46,2.36 8.91,4.75 13.33,7.17 h 0.01 c 4.43,2.41 8.85,4.85 13.25,7.32 h 0.01 c 4.4,2.46 8.78,4.96 13.16,7.47 h 0.01 c 4.37,2.52 8.75,5.05 13.09,7.61 h 0.01 c 4.34,2.56 8.69,5.15 13,7.76 h 0.01 l 12.91,7.9 h 0.01 c 4.29,2.65 8.56,5.34 12.82,8.04 h 0.01 c 4.26,2.7 8.49,5.43 12.72,8.17 h 0.01 l 12.64,8.32 h 0.01 c 4.2,2.79 8.38,5.62 12.54,8.46 h 0.01 c 4.17,2.84 8.32,5.72 12.45,8.6 h 0.01 l 12.35,8.74 h 0.01 l 12.26,8.87 h 0.01 c 4.07,2.98 8.14,5.98 12.17,9.01 h 0.01 c 4.04,3.02 8.05,6.08 12.06,9.15 h 0.01 c 4.01,3.07 7.99,6.16 11.97,9.28 h 0.01 l 11.86,9.42 h 0.01 c 3.94,3.16 7.86,6.34 11.76,9.55 h 0.01 l 11.66,9.68 h 0.01 l 11.56,9.82 h 0.01 l 11.45,9.95 h 0.01 l 11.34,10.08 h 0.01 c 3.76,3.38 7.51,6.78 11.24,10.21 h 0.01 c 3.73,3.42 7.44,6.88 11.13,10.34 h 0.01 l 11.02,10.46 c 3.66,3.51 7.3,7.05 10.91,10.6 h 0.01 c 3.62,3.55 7.22,7.13 10.79,10.72 h 0.01 c 3.58,3.59 7.14,7.21 10.68,10.85 h 0.01 l 10.57,10.98 c 3.51,3.68 6.98,7.37 10.45,11.1 h 0.01 c 3.46,3.72 6.91,7.46 10.33,11.22 h 0.01 c 3.43,3.76 6.83,7.55 10.22,11.35 3.39,3.8 6.75,7.63 10.1,11.47 3.35,3.84 6.67,7.71 9.98,11.59 l 9.86,11.72 9.73,11.83 h 0.01 c 3.22,3.96 6.42,7.96 9.6,11.96 h 0.01 c 3.18,4 6.34,8.03 9.48,12.07 l 9.35,12.19 h 0.01 c 3.1,4.08 6.16,8.18 9.22,12.31 h 0.01 l 9.09,12.43 8.97,12.54 8.84,12.65 c 2.92,4.24 5.83,8.51 8.7,12.78 2.88,4.28 5.74,8.56 8.57,12.88 l 8.43,13 c 2.79,4.35 5.55,8.72 8.3,13.11 l 8.16,13.22 c 2.7,4.43 5.36,8.87 8.01,13.33 2.65,4.46 5.28,8.96 7.88,13.45 l 7.74,13.55 c 2.56,4.54 5.08,9.09 7.59,13.66 2.51,4.57 4.99,9.16 7.45,13.77 2.46,4.61 4.9,9.23 7.31,13.87 2.41,4.64 4.79,9.3 7.15,13.98 h 0.01 c 2.36,4.68 4.69,9.37 7,14.09 h 0.01 l 6.86,14.19 6.71,14.3 c 2.21,4.78 4.4,9.58 6.56,14.4 l 6.4,14.5 h 0.01 c 2.11,4.85 4.19,9.71 6.25,14.6 l 6.1,14.71 c 2.01,4.92 3.98,9.84 5.94,14.8 h 0.01 c 1.96,4.95 3.86,9.93 5.77,14.91 h 0.01 l 5.62,15 h 0.01 c 1.85,5.02 3.66,10.05 5.46,15.1 l 5.3,15.2 h 0.01 c 1.74,5.08 3.44,10.18 5.13,15.29 h 0.01 c 1.69,5.11 3.33,10.25 4.97,15.39 h 0.01 l 4.81,15.49 h 0.01 l 3781.56,12411.3 c 54.2,178.7 -23.29,365.97 -176.7,457.59 l 0.14,0.23 -1033.5,620.1 c -188.98,113.04 -433.84,51.48 -546.88,-137.5 -4.4,-7.35 -8.5,-14.8 -12.37,-22.31 z m -3419.76,-13495.79 -2318.44,390.02 -4.53,0.77 v 0.01 l -4.52,0.8 v 0.01 l -4.5,0.82 v 0.01 l -4.48,0.86 v 0.01 l -4.47,0.88 v 0.01 l -4.44,0.92 v 0.01 l -4.44,0.94 v 0.01 l -4.41,0.97 v 0.01 l -4.4,1 v 0.01 l -4.38,1.03 v 0.01 l -4.36,1.06 v 0.01 l -4.34,1.08 v 0.01 l -4.33,1.12 v 0.01 l -4.31,1.14 v 0.01 l -4.29,1.17 v 0.01 l -4.27,1.2 v 0.01 l -4.26,1.23 v 0.01 l -4.23,1.25 v 0.01 l -4.22,1.29 v 0.01 l -4.21,1.31 v 0.01 l -4.18,1.34 v 0.01 l -4.16,1.37 v 0.01 l -4.15,1.39 v 0.01 l -4.13,1.43 v 0.01 l -4.11,1.45 v 0.01 l -4.09,1.48 v 0.01 l -4.07,1.5 v 0.01 l -4.06,1.54 v 0.01 l -4.03,1.56 v 0.01 l -4.02,1.59 v 0.01 l -3.99,1.62 v 0.01 l -3.98,1.64 v 0.01 l -3.96,1.68 -3.94,1.71 -3.92,1.73 v 0.01 l -3.9,1.76 -3.88,1.79 -3.87,1.81 v 0.01 l -3.84,1.84 v 0.01 l -3.82,1.86 v 0.01 l -3.81,1.89 v 0.01 l -3.78,1.92 -3.76,1.95 v 0.01 l -3.75,1.97 -3.72,2 v 0.01 l -3.71,2.03 -3.68,2.06 -3.66,2.08 v 0.01 l -3.65,2.1 v 0.01 l -3.62,2.13 v 0.01 l -3.6,2.16 -3.58,2.19 -3.57,2.21 v 0.01 l -3.54,2.24 -3.52,2.27 -3.49,2.29 v 0.01 l -3.48,2.32 -3.46,2.34 v 0.01 l -3.44,2.37 -3.41,2.4 -3.4,2.42 -3.37,2.45 -3.35,2.48 -3.33,2.5 c -70.17,53.16 -127.9,125.55 -169.95,214.71 l -1.97,4.22 -1.94,4.21 -1.9,4.22 -1.87,4.22 -1.83,4.22 -1.81,4.22 -1.76,4.23 -1.74,4.22 -1.7,4.23 -1.67,4.22 -1.63,4.23 -1.6,4.22 v 0.01 l -1.56,4.22 -1.53,4.23 -1.5,4.23 -1.46,4.23 -1.43,4.23 -1.4,4.23 -1.36,4.22 v 0.01 l -1.33,4.22 -1.3,4.23 -1.26,4.23 -1.23,4.23 -1.19,4.22 v 0.01 l -1.16,4.22 -1.13,4.23 -1.09,4.22 v 0.01 l -1.06,4.22 -1.02,4.22 -1,4.22 v 0.01 l -0.95,4.21 v 0.01 l -0.93,4.21 v 0.01 l -0.89,4.21 v 0.01 l -0.86,4.21 -0.82,4.22 -0.79,4.21 -0.75,4.21 v 0.01 l -0.73,4.2 v 0.01 l -0.69,4.2 v 0.01 l -0.65,4.2 -0.62,4.2 v 0.01 l -0.59,4.2 -0.55,4.2 -0.52,4.19 v 0.01 l -0.49,4.19 -0.45,4.19 v 0.01 l -0.42,4.18 v 0.01 l -0.39,4.18 -0.35,4.19 -0.32,4.18 -0.28,4.18 -0.25,4.17 v 0.01 l -0.22,4.17 -0.18,4.16 v 0.01 l -0.15,4.16 -0.12,4.16 v 0.01 l -0.08,4.15 v 0.01 l -0.05,4.15 -0.02,4.15 0.02,4.15 0.05,4.14 0.09,4.14 0.12,4.14 0.15,4.13 0.19,4.14 0.22,4.14 0.25,4.15 0.29,4.14 0.32,4.14 0.35,4.15 0.39,4.14 0.42,4.15 0.45,4.14 h 0.01 l 0.48,4.15 0.52,4.14 h 0.01 l 0.55,4.15 0.59,4.14 0.62,4.14 v 0.01 l 0.65,4.14 h 0.01 l 1.41,8.28 v 0.01 l 0.75,4.14 h 0.01 l 0.78,4.14 h 0.01 l 0.82,4.14 v 0.01 l 1.74,8.27 h 0.01 l 0.92,4.14 1.94,8.27 h 0.01 l 1.02,4.13 v 0.01 l 1.06,4.12 v 0.01 l 1.09,4.12 v 0.01 l 2.28,8.25 v 0.01 l 2.42,8.24 1.25,4.12 h 0.01 l 1.28,4.12 h 0.01 l 1.32,4.11 v 0.01 l 1.36,4.11 2.82,8.22 v 0.01 l 2.95,8.2 v 0.01 l 3.08,8.19 h 0.01 l 3.21,8.18 v 0.01 l 1.66,4.08 v 0.01 l 1.69,4.08 v 0.01 l 1.73,4.07 v 0.01 l 3.55,8.15 1.82,4.07 h 0.01 l 3.74,8.13 h 0.01 l 1.92,4.06 h 0.01 l 1.95,4.05 v 0.01 l 1.99,4.05 h 0.01 l 2.02,4.04 v 0.01 l 2.06,4.04 2.09,4.04 h 0.01 l 2.11,4.03 h 0.01 l 2.15,4.03 h 0.01 c 2.18,4.03 4.4,8.05 6.67,12.06 h 0.01 l 2.28,4.01 h 0.01 l 6637.06,11520.22 419.13,-251.48 -3690.92,-12113.8 h -0.01 l -2.01,-6.5 h -0.01 l -2.08,-6.45 h -0.01 l -2.14,-6.42 h -0.01 l -2.22,-6.37 h -0.01 l -2.28,-6.33 -0.01,-0.01 -2.34,-6.28 -0.01,-0.01 -2.41,-6.24 -0.01,-0.01 -2.48,-6.2 h -0.01 l -2.54,-6.16 -0.01,-0.01 -2.61,-6.11 -0.01,-0.01 -2.67,-6.07 -0.01,-0.01 -2.73,-6.03 -0.01,-0.01 -2.8,-5.98 -0.01,-0.01 -2.86,-5.94 -0.01,-0.01 -2.92,-5.89 -0.01,-0.01 -2.98,-5.85 -0.01,-0.01 -3.04,-5.8 -0.01,-0.01 -3.1,-5.76 -0.01,-0.01 -3.17,-5.71 v -0.01 l -3.23,-5.67 v -0.01 l -3.29,-5.62 v -0.01 l -3.35,-5.57 v -0.01 l -3.4,-5.53 -0.01,-0.01 -3.46,-5.48 v -0.01 l -3.52,-5.43 v -0.01 l -3.57,-5.38 -0.01,-0.02 -3.62,-5.33 -0.01,-0.01 -3.68,-5.29 -0.01,-0.01 -3.73,-5.24 -0.01,-0.01 -3.79,-5.19 v -0.01 l -3.85,-5.14 v -0.01 l -3.9,-5.09 -0.01,-0.01 -3.95,-5.04 v -0.01 l -4.01,-4.99 v -0.01 l -4.06,-4.94 v -0.01 l -4.11,-4.89 v -0.01 l -4.16,-4.84 v -0.01 l -4.21,-4.78 v -0.01 l -4.26,-4.74 v -0.01 l -4.31,-4.68 v -0.01 l -4.36,-4.63 v -0.01 l -4.41,-4.57 v -0.01 l -4.45,-4.53 v -0.01 c -2.98,-3 -6,-5.96 -9.05,-8.89 v -0.01 l -4.6,-4.37 -4.64,-4.32 -4.68,-4.26 v -0.01 l -4.73,-4.2 h -0.01 l -4.77,-4.15 v -0.01 l -4.81,-4.09 h -0.01 l -4.85,-4.04 h -0.01 l -4.9,-3.98 v -0.01 c -4.92,-3.96 -9.92,-7.83 -14.96,-11.61 l -5.07,-3.76 -5.1,-3.7 h -0.01 l -5.14,-3.64 h -0.01 l -5.18,-3.58 h -0.01 l -5.22,-3.52 -5.26,-3.47 h -0.01 l -5.29,-3.4 h -0.01 l -5.33,-3.35 h -0.01 l -5.36,-3.28 h -0.01 l -5.39,-3.22 h -0.01 l -5.43,-3.16 h -0.01 l -5.47,-3.1 h -0.01 l -5.51,-3.03 -0.01,-0.01 -5.54,-2.97 h -0.01 l -5.58,-2.92 -5.62,-2.85 h -0.01 l -5.64,-2.79 h -0.01 l -5.68,-2.73 h -0.01 l -5.72,-2.67 -5.75,-2.6 h -0.01 l -5.78,-2.54 h -0.01 l -5.81,-2.48 h -0.01 l -5.85,-2.41 -5.88,-2.35 h -0.01 l -5.9,-2.28 h -0.01 l -5.94,-2.22 -5.97,-2.15 -0.01,-0.01 -5.99,-2.08 -0.01,-0.01 -6.02,-2.02 h -0.01 l -6.05,-1.95 h -0.01 l -6.08,-1.89 -6.11,-1.83 -6.14,-1.75 -6.16,-1.69 h -0.01 l -6.18,-1.62 h -0.01 l -6.21,-1.56 -6.24,-1.48 -6.26,-1.42 h -0.01 l -6.28,-1.35 -6.31,-1.27 -6.33,-1.21 -6.35,-1.14 h -0.01 l -6.37,-1.07 -6.39,-1 h -0.01 l -6.41,-0.93 h -0.01 l -6.43,-0.85 v -0.01 l -6.45,-0.78 h -0.01 l -6.47,-0.71 -6.49,-0.64 v -0.01 c -4.34,-0.4 -8.68,-0.75 -13.04,-1.06 -6.54,-0.46 -13.1,-0.81 -19.68,-1.05 h -0.01 c -4.39,-0.16 -8.79,-0.27 -13.19,-0.33 h -0.01 l -6.61,-0.06 h -0.01 l -6.63,0.02 -6.65,0.1 -6.66,0.17 -6.67,0.25 -6.69,0.32 -6.69,0.4 h -0.01 l -6.7,0.47 v 0.01 l -6.72,0.55 -6.73,0.63 -6.73,0.7 -0.01,0.01 -6.74,0.78 -6.75,0.86 v 0.01 l -6.77,0.94 -6.76,1.02 z m 7408.45,17310.13 c -3.09,7.37 -6.22,14.73 -9.4,22.04 z m -93.85,191.78 c -3.56,6.3 -7.16,12.56 -10.8,18.8 z m -2978.43,-2944.82 c 9.27,-10.99 18.68,-21.86 28.24,-32.56 z m 105.72,-113.32 c 10.71,-10.37 21.57,-20.58 32.57,-30.63 z m 190.24,-156.1 c 12.34,-8.51 24.82,-16.84 37.45,-24.99 z m 95.28,-60.44 c 13.07,-7.59 26.26,-15.01 39.61,-22.22 z m 143.02,2347.74 c 5.05,11.32 10.2,22.56 15.42,33.71 z m 56.4,115.98 c 5.66,10.72 11.4,21.35 17.22,31.89 z m 91.06,154.25 c 6.45,9.8 12.96,19.5 19.54,29.12 z M 22419,46361.58 c 0.54,-10.79 0.97,-21.62 1.28,-32.49 z m -730.37,-1530.85 -0.01,-0.01 c -4.23,-2.95 -8.48,-5.87 -12.73,-8.76 l -0.01,-0.01 -12.79,-8.57 v -0.01 c -4.27,-2.83 -8.55,-5.63 -12.84,-8.4 l -0.01,-0.01 -12.89,-8.23 c -4.3,-2.71 -8.62,-5.4 -12.94,-8.05 -4.32,-2.65 -8.66,-5.29 -12.99,-7.88 -4.34,-2.6 -8.67,-5.15 -13.03,-7.69 l -11.14,-6.41 -0.41,-0.24 -10.75,-6.03 -0.83,-0.46 -10.36,-5.68 -1.24,-0.67 -3.53,-1.88 -7.64,-4.06 -0.46,-0.25 -9.57,-4.98 -0.83,-0.42 -6.64,-3.37 -4.86,-2.45 -5.92,-2.92 -5.54,-2.72 -6.78,-3.26 -4.63,-2.21 -5.1,-2.38 -7.41,-3.43 -4.53,-2.06 -5.69,-2.55 -8.33,-3.67 -2.44,-1.06 -8.21,-3.51 -4.02,-1.7 -6.98,-2.89 -5.01,-2.04 -6.67,-2.67 -4.15,-1.63 -7.5,-2.91 -4.76,-1.81 -6.14,-2.29 -5.47,-2.01 -6.84,-2.46 -4.03,-1.42 -7.41,-2.57 -4.05,-1.37 -7.8,-2.61 -3.35,-1.09 -8.53,-2.73 -2.18,-0.68 -9.03,-2.77 -3.63,-1.08 -7.82,-2.3 -3.66,-1.03 -7.99,-2.24 -2.27,-0.62 c -37.4,-10.15 -74.78,-17.83 -111.94,-22.9 l -0.17,-0.02 c -7.23,-0.99 -14.46,-1.87 -21.67,-2.66 l -1.29,-0.15 -10.31,-1.04 -0.84,-0.08 -9.92,-0.86 -1.69,-0.14 c -10.96,-0.86 -21.89,-1.5 -32.79,-1.89 l -0.68,-0.03 c -7.19,-0.26 -14.36,-0.4 -21.52,-0.45 l -1.18,-0.01 -10.35,0.02 h -0.43 l -10.29,0.17 -1.34,0.03 c -10.86,0.27 -21.7,0.79 -32.47,1.55 h -0.03 c -55,3.87 -108.88,14.13 -160.97,31.14 l -0.43,0.14 -9.55,3.22 -1.05,0.36 -9.7,3.45 z m 26021.13,2127.4 c -128.36,-49.61 -192.19,-193.9 -142.58,-322.26 49.61,-128.36 193.9,-192.19 322.26,-142.58 1529.61,593.1 3468.98,662.95 5456.16,477.82 2001.75,-186.49 4055.39,-633.85 5792.87,-1068.06 133.75,-33.44 269.3,47.89 302.74,181.64 33.44,133.75 -47.89,269.3 -181.64,302.74 -1752.68,438.01 -3828.71,889.7 -5869.05,1079.78 -2054.93,191.44 -4070.2,115.41 -5680.76,-509.08 z M 27998.31,44887.61 c -220.05,-6.04 -393.54,-189.33 -387.5,-409.38 6.04,-220.05 189.33,-393.54 409.38,-387.5 671.1,19.98 1314.7,17.19 1935.32,14.52 2959.77,-12.79 5421,-22.8 7441.48,2250 499.99,-168.06 1037.28,-294.58 1556.52,-405.02 1364.53,-290.22 2487.8,-186.73 3545.08,146.73 1035.38,326.55 1986.19,867.67 3041.54,1472.29 2574.6,1475 5563.09,1123.34 8614.87,764.23 474.96,-55.88 951.51,-111.96 1482.27,-166.6 219.19,-22.43 415.08,137.06 437.51,356.25 22.43,219.19 -137.06,415.08 -356.25,437.51 -455.93,46.93 -965.27,106.87 -1472.91,166.6 -3182.95,374.54 -6299.9,741.31 -9102.37,-864.23 -1015.33,-581.69 -1929.54,-1102.11 -2885.28,-1403.55 -933.84,-294.53 -1927.94,-385.52 -3138.84,-127.97 -397.1,84.47 -803.98,178.22 -1188.69,292.37 251.35,349.4 495.4,740.38 732.24,1178.25 313.01,578.69 216.12,1066.1 -105.26,1430.98 -265.25,301.13 -691.23,494.14 -1148.25,561.87 -437.49,64.84 -917.59,16.34 -1315.96,-161.97 -582.1,-260.54 -992.73,-772.63 -907.27,-1578.79 87.96,-829.96 642.36,-1380.13 1406.24,-1768.15 l 0.19,-0.1 c -1797,-1804.21 -4002.67,-1795.19 -6633.74,-1783.82 -631.34,2.72 -1286.06,5.55 -1960.32,-14.52 z m 9961.25,3692.62 c -262.16,-484.69 -535.58,-905.36 -820.19,-1270.98 -64.34,28.7 -127.04,58.43 -187.81,89.3 -533.56,271.03 -918.17,630.31 -971.86,1136.91 -41.77,393.99 156.81,643.32 438.51,769.41 255.75,114.47 575.87,143.86 875.34,99.47 279.93,-41.48 527.77,-144.86 663.87,-299.37 104.52,-118.67 126.79,-294.28 2.14,-524.74 z M 20818.32,24520.49 c -128.36,49.61 -272.65,-14.22 -322.26,-142.58 -49.61,-128.36 14.22,-272.65 142.58,-322.26 1714.98,-664.98 3888.18,-708.3 6079.14,-469.14 2171.22,237.01 4363.1,751.32 6136.05,1209.58 133.21,34.51 213.22,170.5 178.71,303.71 -34.51,133.21 -170.5,213.22 -303.71,178.71 -1753.92,-453.34 -3921.4,-962.04 -6063.79,-1195.9 -2122.66,-231.71 -4217.48,-193.85 -5846.72,437.88 z m -10750.07,-815.96 c 284.58,-365.77 558.02,-786.29 820.19,-1270.98 124.65,-230.46 102.38,-406.07 -2.14,-524.74 -136.1,-154.51 -383.94,-257.89 -663.87,-299.37 -299.47,-44.39 -619.59,-15 -875.34,99.47 -281.7,126.09 -480.28,375.42 -438.51,769.41 53.69,506.6 438.3,865.88 971.85,1136.91 60.78,30.87 123.48,60.6 187.82,89.3 z"
       id="path6" /></g></svg>
