<?xml version="1.0" encoding="UTF-8" standalone="no"?>
<svg
   viewBox="0 0 83.780505 72.831633"
   x="0px"
   y="0px"
   version="1.1"
   id="svg74"
   sodipodi:docname="twitter.svg"
   inkscape:version="1.1.1 (3bf5ae0d25, 2021-09-20)"
   width="83.780502"
   height="72.831635"
   xmlns:inkscape="http://www.inkscape.org/namespaces/inkscape"
   xmlns:sodipodi="http://sodipodi.sourceforge.net/DTD/sodipodi-0.dtd"
   xmlns="http://www.w3.org/2000/svg"
   xmlns:svg="http://www.w3.org/2000/svg"
   xmlns:rdf="http://www.w3.org/1999/02/22-rdf-syntax-ns#"
   xmlns:cc="http://creativecommons.org/ns#"
   xmlns:dc="http://purl.org/dc/elements/1.1/">
  <defs
     id="defs78" />
  <sodipodi:namedview
     id="namedview76"
     pagecolor="#505050"
     bordercolor="#ffffff"
     borderopacity="1"
     inkscape:pageshadow="0"
     inkscape:pageopacity="0"
     inkscape:pagecheckerboard="1"
     showgrid="false"
     inkscape:zoom="9.2658157"
     inkscape:cx="37.287597"
     inkscape:cy="53.584057"
     inkscape:window-width="1920"
     inkscape:window-height="1016"
     inkscape:window-x="0"
     inkscape:window-y="27"
     inkscape:window-maximized="1"
     inkscape:current-layer="svg74" />
  <title
     id="title2">Asset 69</title>
  <g
     data-name="Layer 2"
     id="g68"
     transform="translate(0,0.00285391)">
    <g
       data-name="Layer 1"
       id="g66">
      <path
         d="M 36.15,61.62 31.64,60.9 c -0.79,3.58 -1.59,7.18 -2.37,10.73 A 21.55,21.55 0 0 0 26.2,71.37 c -1.15,0.06 -1.29,-0.45 -1.11,-1.38 0.66,-3.47 1.26,-7 2,-10.41 A 4.13,4.13 0 0 0 26.55,56.26 29,29 0 0 1 22.3,42.49 57.91,57.91 0 0 0 20.55,31.65 10.66,10.66 0 0 0 17.84,27.57 37.61,37.61 0 0 1 10.72,16.07 3.74,3.74 0 0 0 9.18,14.43 C 6.71,12.95 4.18,11.59 1.7,10.12 A 11.07,11.07 0 0 1 0,8.64 L 0.26,8.1 5.47,8.83 C 4.63,8.08 4,7.6 3.52,7 3.04,6.4 2.67,5.89 2.24,5.31 L 2.49,5 5.75,5.43 a 12,12 0 0 1 1.81,0.28 c 2,0.58 3,-0.16 3.9,-2 0.9,-1.84 3.12,-2.63 5.05,-3.17 5.17,-1.44 9.73,0.13 14,3 4.58,3.08 7.13,7.67 9.52,12.39 A 23.25,23.25 0 0 0 47,24.39 c 2.85,2.1 5.63,4.29 8.56,6.55 a 15.71,15.71 0 0 1 0.64,-3.58 47,47 0 0 1 4,-8 15.31,15.31 0 0 1 4.8,-3.96 c 1.85,-1.12 4.17,0.75 3.93,3 -0.13,1.14 -0.39,2.27 -0.55,3.15 1.33,-0.79 2.71,-1.74 4.21,-2.46 1.8,-0.87 3.22,-0.14 3.57,1.82 a 38,38 0 0 1 0.29,4 15.08,15.08 0 0 1 1.69,-0.8 4.23,4.23 0 0 1 4.54,1.1 c 1.61,1.49 1.08,3.36 0.72,5.06 -0.54,2.58 -2.27,4.53 -4.07,6.35 -2.19,2.22 -4.36,4.47 -6.73,6.49 -3,2.54 -6.16,4.84 -9.24,7.27 -1.11,0.88 -2.2,1.79 -3.24,2.76 a 1.15,1.15 0 0 0 -0.19,1 A 32.91,32.91 0 0 1 62,65 a 47.43,47.43 0 0 0 0.69,4.81 27.58,27.58 0 0 1 -3.38,-2.09 c -3.67,-3.16 -8,-5.15 -12.19,-7.49 a 3,3 0 0 0 -1.73,-0.06 14.2,14.2 0 0 1 -1.9,0.52 c -1.71,0 -2.07,1.06 -2.28,2.45 -0.45,2.89 -0.94,5.77 -1.51,8.63 -0.07,0.32 -0.76,0.66 -1.2,0.74 -1,0.18 -2.11,0.23 -3.16,0.31 -1.05,0.08 -1.37,-0.39 -1.24,-1.27 0.2,-1.44 0.45,-2.88 0.74,-4.3 0.41,-1.8 0.86,-3.62 1.31,-5.63 z m 23,-8.9 c 1.57,-1.27 3,-2.55 4.52,-3.62 a 89.26,89.26 0 0 0 16.49,-14.7 10.46,10.46 0 0 0 2.72,-5.35 c 0.29,-2 -0.31,-3.38 -2,-4 a 4.9,4.9 0 0 0 -4.84,1.49 c -0.76,1.22 -1.51,2.46 -2.32,3.65 -2,3 -4,5.93 -6,8.89 a 3.15,3.15 0 0 1 -0.57,0.52 l -0.39,-0.17 a 7.47,7.47 0 0 1 0.56,-1.5 c 2.28,-3.52 4.68,-7 6.88,-10.55 1.2,-1.94 2,-4.07 1.21,-6.45 a 1.64,1.64 0 0 0 -2.46,-1.09 9.18,9.18 0 0 0 -5.61,6.06 c -0.53,1.81 -1.2,3.57 -1.88,5.32 -0.82,2.08 -1.71,4.13 -2.57,6.19 L 62.4,37.32 a 9,9 0 0 1 0.27,-2 c 1.12,-3.09 2.38,-6.14 3.44,-9.26 a 66.32,66.32 0 0 0 2,-7.33 2.88,2.88 0 0 0 -0.73,-2.26 2.23,2.23 0 0 0 -2.08,-0.2 12.86,12.86 0 0 0 -3.76,2.73 23.81,23.81 0 0 0 -4.84,9.5 5.26,5.26 0 0 0 1.07,5.3 7.73,7.73 0 0 1 1,2.06 l -0.52,0.26 c -0.19,-0.32 -0.37,-0.66 -0.59,-1 a 15.68,15.68 0 0 0 -2.07,-2.84 c -2.09,-1.85 -4.27,-3.6 -6.5,-5.27 -3.74,-2.8 -7.21,-5.77 -9.41,-10 -1.38,-2.67 -3,-5.23 -4.63,-7.75 A 19,19 0 0 0 24.57,1.51 11.83,11.83 0 0 0 15.34,2 a 7.8,7.8 0 0 0 -3,2.28 c -2.09,3 -2.24,6.48 -1.3,9.92 a 28.18,28.18 0 0 0 6.48,11.66 c 2.12,2.33 4.11,4.73 4.63,7.94 0.4,2.52 0.68,5.06 0.88,7.61 0.4,5.19 1.4,10.19 4.35,14.6 a 8.86,8.86 0 0 0 6.26,4.25 48.47,48.47 0 0 0 7.62,0 25.6,25.6 0 0 0 3.62,-0.68 v -0.39 l -1.59,-0.83 a 26.6,26.6 0 0 1 -3.62,-1.93 c -5,-3.79 -9.46,-8 -11.49,-14.19 a 22.06,22.06 0 0 1 -0.85,-9.53 c 0.41,-3.48 2.73,-5.83 5.43,-7.79 a 4.11,4.11 0 0 1 4.75,0.25 5.56,5.56 0 0 0 0.83,0.53 27.93,27.93 0 0 1 8.66,7.23 c 4.38,5.48 8.86,11 11.19,17.75 a 17.74,17.74 0 0 0 0.98,2.04 z m 2.34,15.36 c -0.39,-4.15 -0.23,-7.95 -1.63,-11.43 -1.93,-4.79 -3.82,-9.61 -6.72,-14 -3.74,-5.64 -7.87,-10.88 -13.26,-15 -1.93,-1.47 -4.16,-3 -6.61,-1.64 a 11.37,11.37 0 0 0 -3.92,3.88 c -1.87,3 -1.56,6.39 -1,9.66 1,5.56 4.46,9.63 8.36,13.44 2.57,2.51 5.86,3.74 8.9,5.42 3.83,2.13 7.65,4.28 11.42,6.5 1.46,0.86 2.76,1.94 4.48,3.17 z M 40.32,61.64 c -2.85,-0.45 -2.91,-0.47 -3.64,2 -0.48,1.62 -0.8,3.28 -1.12,4.93 -0.15,0.8 -0.47,2.11 -0.15,2.33 a 4.79,4.79 0 0 0 2.69,0.42 c 0.35,0 0.9,-0.68 1,-1.11 0.44,-2.8 0.81,-5.64 1.22,-8.57 z m -14.49,8.44 c 3,0.48 2.8,0.7 3.34,-2.17 0.29,-1.57 0.53,-3.15 0.91,-4.7 0.69,-2.78 0.73,-2.77 -1.54,-4.45 -0.06,0 -0.17,0 -0.35,-0.06 Q 27,64.39 25.83,70.08 Z M 9.68,13.5 V 6.9 L 4.45,6.49 c 1.35,1.26 2.74,2 3.34,3.91 L 2.3,9.27 v 0.14 z"
         id="path4" />
      <path
         d="m 18.75,3.64 a 4.41,4.41 0 0 1 3.86,3.81 3.15,3.15 0 0 1 -3.27,3 c -1.49,0 -3.59,-2 -3.63,-3.42 C 15.65,5 16.83,3.65 18.75,3.64 Z m 0.5,5.76 A 2.09,2.09 0 0 0 21.48,7.49 C 21.48,6.22 20.06,4.6 18.99,4.6 A 2.32,2.32 0 0 0 16.71,7 2.9,2.9 0 0 0 19.25,9.4 Z"
         id="path6" />
      <path
         d="m 63.79,20.06 c 0.68,-0.47 1.1,-1 1.51,-1 0.41,0 1,0.76 0.87,1 a 5.12,5.12 0 0 1 -1,1.48 z"
         id="path8" />
      <path
         d="m 61.79,28 c -0.59,-0.82 -1.11,-1.24 -1.14,-1.69 -0.03,-0.45 0.65,-1 1,-0.95 a 1.46,1.46 0 0 1 1,1 c 0.07,0.34 -0.4,0.81 -0.86,1.64 z"
         id="path10" />
      <path
         d="m 68.64,32.3 c -0.56,-0.73 -1.18,-1.2 -1.14,-1.59 0.04,-0.39 0.73,-0.76 1.13,-1.14 0.36,0.4 0.92,0.77 1,1.22 0.08,0.45 -0.5,0.8 -0.99,1.51 z"
         id="path12" />
      <path
         d="m 68.88,27.19 1.5,-1.12 a 6.82,6.82 0 0 1 1,1.49 c 0.06,0.15 -0.67,0.86 -0.92,0.81 -0.46,-0.11 -0.84,-0.6 -1.58,-1.18 z"
         id="path14" />
      <path
         d="m 72.84,26.12 c -0.57,-0.86 -1.07,-1.3 -1.09,-1.76 -0.02,-0.46 0.59,-0.72 0.92,-1.08 0.36,0.39 0.92,0.74 1,1.18 0.08,0.44 -0.37,0.83 -0.83,1.66 z"
         id="path16" />
      <path
         d="m 63.06,24.69 c -0.26,-0.44 -0.78,-0.92 -0.72,-1.32 0.06,-0.4 0.63,-0.86 1,-1.28 0.32,0.32 0.94,0.66 0.92,1 a 5.31,5.31 0 0 1 -0.7,1.64 z"
         id="path18" />
      <path
         d="m 78.39,29.55 c 0.64,-0.4 1.11,-0.89 1.36,-0.8 0.43,0.17 1,0.69 1,1.08 0,0.39 -0.6,0.77 -0.94,1.15 z"
         id="path20" />
      <path
         d="m 60.32,31.58 a 7,7 0 0 1 -1,-1.75 c 0,-0.23 0.73,-0.87 0.82,-0.81 a 3.37,3.37 0 0 1 1.22,1.18 c 0.09,0.16 -0.49,0.67 -1.04,1.38 z"
         id="path22" />
      <path
         d="m 77,34.26 c -0.72,0.5 -1.25,1.06 -1.43,1 a 2.37,2.37 0 0 1 -1,-1.21 c -0.07,-0.17 0.61,-0.88 0.8,-0.83 A 6.69,6.69 0 0 1 77,34.26 Z"
         id="path24" />
      <path
         d="m 71.09,40.81 c -0.52,-0.69 -1,-1.07 -1.06,-1.5 -0.06,-0.43 0.5,-0.71 0.78,-1.07 0.33,0.38 0.81,0.7 1,1.14 0.04,0.28 -0.37,0.72 -0.72,1.43 z"
         id="path26" />
      <path
         d="m 78.61,31.87 -1.07,1.06 c -0.34,-0.36 -1,-0.77 -0.93,-1.08 0.07,-0.31 0.65,-0.74 1,-1.11 z"
         id="path28" />
      <path
         d="m 67.05,35.5 a 6.61,6.61 0 0 1 -1,-1.6 c -0.06,-0.23 0.41,-0.58 0.64,-0.89 a 4.81,4.81 0 0 1 1,1.13 c 0.03,0.21 -0.31,0.62 -0.64,1.36 z"
         id="path30" />
      <path
         d="m 73.64,38.28 a 8.32,8.32 0 0 1 -1.15,-1.51 c 0,-0.11 0.63,-0.78 0.8,-0.72 a 1.82,1.82 0 0 1 0.94,0.93 c 0.09,0.22 -0.23,0.63 -0.59,1.3 z"
         id="path32" />
      <path
         d="m 38.89,37.74 c 2.28,0.06 5.47,2.19 6,3.86 a 5.56,5.56 0 0 1 -0.23,2.1 C 44.01,43.52 43.11,43.55 42.77,43.12 41.4,41.48 40.26,39.69 38.89,37.74 Z m 2,1.17 c 0.77,1.75 1.35,3.23 3.08,3.89 0.03,-1.35 -0.68,-2.31 -3.13,-3.89 z"
         id="path34" />
      <path
         d="m 38.14,28.37 c 2,1.46 4.44,1.72 5.18,4.24 0.1,0.36 0.14,1 0,1.12 A 1.78,1.78 0 0 1 42,33.9 c -2.17,-0.52 -3.8,-2.73 -3.86,-5.53 z m 3.79,4.83 0.35,-0.38 c -0.69,-1.6 -1.71,-2.37 -3.31,-2.18 z"
         id="path36" />
      <path
         d="M 48.06,41 A 9.85,9.85 0 0 1 46.34,39.82 22.06,22.06 0 0 1 44,37 a 1.15,1.15 0 0 1 0.12,-1.11 1.17,1.17 0 0 1 1.07,-0.12 c 1.54,0.77 3.25,1.34 4.09,3.07 0.49,1.05 0.04,2.16 -1.22,2.16 z m -2.83,-4.43 -0.5,0.59 c 0.93,0.85 1.84,1.72 2.81,2.53 0.2,0.16 0.64,0 1,0.07 -0.07,-0.34 0,-0.83 -0.25,-1 -1.01,-0.83 -2.05,-1.52 -3.06,-2.24 z"
         id="path38" />
      <path
         d="m 35.75,37.2 c -0.52,0.54 -0.84,1.16 -1.17,1.16 A 2.19,2.19 0 0 1 32.9,37.74 18.07,18.07 0 0 1 31.31,34.15 1.24,1.24 0 0 1 31.76,33 c 0.51,-0.16 1.43,-0.21 1.64,0.08 0.87,1.28 1.53,2.66 2.35,4.12 z m -3.06,-3.35 a 3.37,3.37 0 0 0 1.59,3.69 C 34.52,35.92 33.33,35 32.69,33.85 Z"
         id="path40" />
      <path
         d="m 47.61,52.81 c 1,1.32 2,2.62 2.91,4 a 1.41,1.41 0 0 1 -0.29,1.25 c -0.17,0.2 -0.78,0.19 -1.12,0.08 a 2.92,2.92 0 0 1 -2,-3.33 c 0,-0.6 0,-1.2 0,-1.8 z"
         id="path42" />
      <path
         d="m 37.14,39.65 c 0.5,0.24 1.06,0.32 1.29,0.64 a 32.74,32.74 0 0 1 2.27,3.54 c 0.19,0.35 0.13,1.17 -0.12,1.33 a 1.81,1.81 0 0 1 -1.51,0.13 C 37.22,44.46 36.33,42 37.14,39.65 Z m 2.91,4.61 -2.08,-3 c -0.33,1.74 0.3,2.74 2.08,3 z"
         id="path44" />
      <path
         d="m 36.17,30.21 c 1.34,1.43 2.45,2.49 3.4,3.67 a 1.5,1.5 0 1 1 -2.32,1.86 17.21,17.21 0 0 1 -1.71,-3.63 c -0.14,-0.4 0.32,-1.01 0.63,-1.9 z m 0.27,1.5 c 0,2.14 1.09,3.79 2.39,3.68 0.1,-1.26 -0.35,-1.98 -2.39,-3.68 z"
         id="path46" />
      <path
         d="m 47,44.4 a 43.42,43.42 0 0 1 3,3.65 c 0.39,0.57 1.38,1.47 0.33,2.19 -1.05,0.72 -1.93,-0.16 -2.48,-1 a 7.31,7.31 0 0 1 -1.32,-4.57 z m 2.53,5.07 0.38,-0.31 -1.91,-2.44 -0.3,0.23 c 0.53,0.91 0.45,2.25 1.87,2.52 z"
         id="path48" />
      <path
         d="m 45.3,52.66 a 13.3,13.3 0 0 1 -1.77,-1.92 11.12,11.12 0 0 1 -1,-2.48 2.87,2.87 0 0 1 0,-0.88 c 0.35,0 0.85,-0.15 1,0 a 38.93,38.93 0 0 1 3.11,3.44 c 0.56,0.71 -0.1,1.55 -1.34,1.84 z M 44.12,49 43.8,49.29 c 0.56,0.74 0.34,2.1 2.08,1.91 z"
         id="path50" />
      <path
         d="m 54.14,50.52 a 2.15,2.15 0 0 1 0.43,-0.61 0.62,0.62 0 0 1 0.62,0.06 c 1,1.39 2,2.8 3,4.25 0.17,0.25 0.16,0.93 0,1 a 1.61,1.61 0 0 1 -1.17,0.1 c -1.64,-0.41 -2.94,-2.53 -2.88,-4.8 z m 3,4 0.37,-0.31 -2,-2.74 a 2.47,2.47 0 0 0 1.59,3.06 z"
         id="path52" />
      <path
         d="m 55.48,58 c 1.75,0.24 3.33,2.14 3.16,3.6 0,0.33 -0.23,0.88 -0.42,0.92 A 1.66,1.66 0 0 1 57,62.29 4.84,4.84 0 0 1 55.48,58 Z"
         id="path54" />
      <path
         d="m 50.94,42.05 c 1,1.15 2,2.29 3,3.46 a 1.25,1.25 0 0 1 0.33,0.89 10,10 0 0 1 -0.54,1.6 c -0.48,-0.22 -1.14,-0.31 -1.42,-0.68 a 9,9 0 0 1 -1.76,-5.07 z m 1.16,2.16 -0.5,0.3 1.4,2.57 0.61,-0.36 z"
         id="path56" />
      <path
         d="m 54.52,57.15 c -2.8,0.21 -4.14,-1.91 -3.45,-5.32 1.77,0.89 3.6,3.65 3.45,5.32 z M 51.9,53.59 c 0.05,2 0.51,2.58 2,2.54 z"
         id="path58" />
      <path
         d="m 36.07,47.48 c -2.21,0.1 -4.28,-2.33 -3.67,-4.23 a 2,2 0 0 1 1.07,-1 c 0.19,-0.07 0.71,0.34 0.9,0.64 0.83,1.4 1.99,2.67 1.7,4.59 z m -0.58,-1 c -0.61,-1.09 -1.21,-2.19 -1.81,-3.28 -0.61,1.68 -0.03,2.71 1.81,3.23 z"
         id="path60" />
      <path
         d="m 39.08,48.4 a 8,8 0 0 1 3.24,3.91 1.32,1.32 0 0 1 -0.5,1.16 1.59,1.59 0 0 1 -1.3,-0.13 C 39,52.49 38.58,51.08 39.08,48.4 Z M 41,52.78 41.57,52.36 40,50.12 39.49,50.47 Z"
         id="path62" />
      <path
         d="m 20.76,7.55 c -0.26,0.14 -0.7,0.58 -1.18,0.62 -1,0.07 -2,-0.31 -1.95,-1.49 0,-0.47 0.78,-1.15 1.31,-1.29 0.97,-0.23 1.8,0.66 1.82,2.16 z"
         id="path64" />
    </g>
  </g>
  <metadata
     id="metadata1055">
    <rdf:RDF>
      <cc:Work
         rdf:about="">
        <dc:title>Asset 69</dc:title>
      </cc:Work>
    </rdf:RDF>
  </metadata>
</svg>
